<svg xmlns="http://www.w3.org/2000/svg" width="40.69" height="35.38" viewBox="0 0 40.69 35.38">
  <defs>
    <style>
      .cls-1 {
        fill: #fff;
        fill-rule: evenodd;
      }
    </style>
  </defs>
  <path id="about_icon" data-name="about icon" class="cls-1" d="M1858.73,1522.4l6.46-6.46-6.14-6.14-9.96,9.96h-4.03a5.157,5.157,0,0,0-1.94.38,4.806,4.806,0,0,0-1.65,1.11l-7.62,7.62a4.806,4.806,0,0,0-1.11,1.65,5.157,5.157,0,0,0-.38,1.94,5.06,5.06,0,0,0,.26,1.6,5.429,5.429,0,0,0,.73,1.44l-2.26,2.27v1.64a5.872,5.872,0,0,0-.92,1.15,2.687,2.687,0,0,0-.36,1.43,3.205,3.205,0,0,0,.25,1.25,3.177,3.177,0,0,0,1.69,1.69,3.205,3.205,0,0,0,1.25.25h37.49v-17.8h-6.79Zm9.22,7.53v12.7h-27.97a2.443,2.443,0,0,1-1.12-.28,2.516,2.516,0,0,1-.91-0.73c-0.06-.09-0.11-0.18-0.16-0.27s-0.1-.18-0.16-0.28a2.614,2.614,0,0,1-.19-0.97,2.37,2.37,0,0,1,.2-0.99,2.83,2.83,0,0,1,.55-0.81,2.567,2.567,0,0,1,.8-0.54,2.377,2.377,0,0,1,.99-0.21h5.08a5.081,5.081,0,0,0,1.99-.39,5.192,5.192,0,0,0,1.62-1.09,5,5,0,0,0,1.08-1.62,4.915,4.915,0,0,0,.4-1.99c0-.13.01-0.26,0.01-0.4s0.01-.27.01-0.41a3.252,3.252,0,0,0-.15-0.99,1.032,1.032,0,0,0-.7-0.66,5.423,5.423,0,0,0,.57-0.52c0.32-.31.71-0.7,1.16-1.16l1.5-1.5c0.54-.54,1.04-1.06,1.52-1.54s0.9-.91,1.26-1.27,0.59-.61.69-0.71l6.62,6.63h5.31Zm-34.32,11.43v-2.53q5.7-5.76,11.43-11.46t11.44-11.43l2.55,2.55q-4.47,4.47-8.89,8.9t-8.9,8.89h-1.28a3.66,3.66,0,0,0-1.48.3,3.939,3.939,0,0,0-2.04,2.03,3.707,3.707,0,0,0-.3,1.49,3.339,3.339,0,0,0,.18,1.1l-0.18.16h-2.53Zm14.72-19.07-12.29,12.31a3.461,3.461,0,0,1-.84-0.92,2.16,2.16,0,0,1-.33-1.2,2.525,2.525,0,0,1,.2-0.98,2.642,2.642,0,0,1,.56-0.83l7.62-7.64a2.462,2.462,0,0,1,1.79-.74h3.29Zm13.25-6.35-1.65,1.65-2.55-2.55,1.65-1.65Z" transform="translate(-1829.81 -1509.81)"/>
</svg>
