<svg id="app_icon" data-name="app icon" xmlns="http://www.w3.org/2000/svg" viewBox="0 0 723.19 721.74"><defs><style>.cls-1,.cls-2,.cls-3,.cls-4,.cls-6{fill:none;}.cls-1,.cls-2{stroke:#231f20;}.cls-1,.cls-2,.cls-3,.cls-4,.cls-5,.cls-6{stroke-miterlimit:10;}.cls-1{stroke-width:5.33px;}.cls-2,.cls-3,.cls-4,.cls-5,.cls-6{stroke-linecap:round;}.cls-2{stroke-width:14.57px;}.cls-3,.cls-4,.cls-5,.cls-6{stroke:#000;}.cls-3{stroke-width:8.74px;}.cls-4,.cls-5{stroke-width:5.75px;}.cls-5{fill:#ed1c24;}.cls-6{stroke-width:3.84px;}.cls-7{font-size:150px;font-family:PoorRichard-Regular, Poor Richard;}</style></defs><title>Artboard 1</title><rect class="cls-1" x="16.13" y="13.04" width="693.42" height="693.42" rx="86.08"/><path d="M177,66.05q3.9-1.65,5.1-1.3a5.61,5.61,0,0,1,2.61,2.38q1.41,2.06,2.79,3.89a15,15,0,0,1,1.89,3.12c1.08,2.69,0,4.67-3.12,6a4.05,4.05,0,0,1-2.47.22c-.87-.18-2.28-1.08-4.23-2.67s-3.62-2.45-5-2.59a7.58,7.58,0,0,0-4,.67c-9,4-17.9,8.36-26.58,13-4.53,2.41-7.25,4.46-8.18,6.06a4.58,4.58,0,0,0,0,4.86L143.35,113c1.59,2.82,3.29,4.5,5.08,5s4.84-.39,9.19-2.7c9.54-5.06,14.36-7.43,24.12-11.85a6.36,6.36,0,0,0,3.73-3.77,6.55,6.55,0,0,0-.21-4.79,2.25,2.25,0,0,1,.25-2.24,4.93,4.93,0,0,1,2.26-1.76,4.76,4.76,0,0,1,3.08-.31,2.91,2.91,0,0,1,2.08,1.84c.39.94.85,2.33,1.4,4.17a43.45,43.45,0,0,0,1.51,4.43,35.89,35.89,0,0,0,2.67,5.17,36,36,0,0,1,1.86,3.23,3.3,3.3,0,0,1-.05,2.8,4,4,0,0,1-2.16,2,3.92,3.92,0,0,1-3.2,0,4.82,4.82,0,0,1-2.49-2.68c-1.39-3.2-4.7-3.7-9.87-1.33-9.56,4.39-14.29,6.74-23.62,11.75-2.94,1.57-4.72,3-5.35,4.16a3.54,3.54,0,0,0,.08,3.62l21.18,37.7a7.78,7.78,0,0,0,3.93,3.5c1.69.7,4.27.56,7.75-.33s5.69-1.14,6.65-.83a3.33,3.33,0,0,1,2.07,1.71c.75,1.49.1,2.75-1.95,3.81a38.94,38.94,0,0,1-6.26,2,37.41,37.41,0,0,0-8.77,3.61,52.59,52.59,0,0,0-10.84,7.91,47.42,47.42,0,0,1-5.06,4.65c-3,1.94-5.14,1.9-6.53-.17a2.1,2.1,0,0,1-.18-1.91c.23-.75,1.46-2.24,3.73-4.43s3.55-4,3.83-5.49a5.57,5.57,0,0,0-.75-4.14l-34.88-56.41c-3.54-5.72-6.16-9.53-7.9-11.44s-3.39-2.76-5-2.53-4,1.36-7.24,3.48a16.66,16.66,0,0,1-5.59,2.61c-1.53.29-2.56,0-3.08-.72s-.4-1.71.29-2.94a10.33,10.33,0,0,1,3.44-3.45A541.68,541.68,0,0,1,177,66.05Z"/><path d="M282.14,129.67c.72,3.41,3.88,5.18,9.42,5.52a9.42,9.42,0,0,1,3.14.62,2.83,2.83,0,0,1,1.39,2.29,2,2,0,0,1-1,1.86,5.84,5.84,0,0,1-2.6,1.19,20.87,20.87,0,0,1-4.31.17,18.18,18.18,0,0,0-4.4.24,21.51,21.51,0,0,0-4.57,1.68,24.63,24.63,0,0,1-3.65,1.52,4.31,4.31,0,0,1-2.39-.17c-.84-.3-1.32-.68-1.44-1.15-.18-.75-.55-1.06-1.09-.92a3.23,3.23,0,0,0-1.33.86,47.49,47.49,0,0,1-18.13,10.46,37.45,37.45,0,0,1-11.65,1.44,24.34,24.34,0,0,1-12.18-3.14,18.66,18.66,0,0,1-8.07-9.68c-1.86-4.68-.78-9.94,3.54-15.67s11.16-10.19,20.37-13a28.76,28.76,0,0,1,10.84-.91c4.1.36,6.32,1.31,6.7,2.76a2,2,0,0,1-.69,2,6.1,6.1,0,0,1-2.62,1.37,17.45,17.45,0,0,1-4.77,0,18.62,18.62,0,0,0-7.13.73c-4.75,1.43-8.31,3.83-10.63,7.09a10.83,10.83,0,0,0-1.49,10.43,12.17,12.17,0,0,0,8.48,8.16,21.94,21.94,0,0,0,12.68-.18,21.1,21.1,0,0,0,10-6.44c2.77-3.14,3.74-6.57,2.8-10.33l-4.78-19.1a8.43,8.43,0,0,0-5.4-6c-2.89-1.15-6.42-1.16-10.51,0a31.31,31.31,0,0,0-13.92,8.48,10.43,10.43,0,0,1-2.92,2.43,7.78,7.78,0,0,1-3.9.38,2.69,2.69,0,0,1-2.28-1.7c-.8-2.24,1.17-5.1,6-8.45a57.7,57.7,0,0,1,17.11-7.82c8-2.26,15-2.31,20.57-.32s8.79,5.22,9.7,9.53Z"/><path d="M309.27,99.18a4.71,4.71,0,0,0-2.47-3.78,6.48,6.48,0,0,0-4-.92c-3.67.52-5.64-.08-5.92-1.88-.32-2.08.85-3.34,3.53-3.72a33,33,0,0,1,4.42-.11,37.18,37.18,0,0,0,5-.12,27,27,0,0,0,4.58-1,21.93,21.93,0,0,1,3.19-.77c1.69-.17,2.85,0,3.47.64s1.27,3.21,1.94,7.82,1.27,10,1.82,16.1c.38,5,.57,7.56,1,12.61a11,11,0,0,0,.84,4.12,4.69,4.69,0,0,0,2.15,1.45,10.3,10.3,0,0,0,3.72.73,9.06,9.06,0,0,1,3.09.49,2,2,0,0,1,1.09,2c.1,1.71-1.25,2.65-4.05,2.86a40.67,40.67,0,0,1-6.24,0,32.43,32.43,0,0,0-6.24.08,37.76,37.76,0,0,0-6,1.25,44.76,44.76,0,0,1-5.31,1.26c-3.06.43-4.71-.1-4.95-1.66a2.52,2.52,0,0,1,.52-2.42,8.15,8.15,0,0,1,3.07-1.27,9.28,9.28,0,0,0,3.63-1.67,3.93,3.93,0,0,0,1.54-2.58,28.83,28.83,0,0,0-.37-6C311.06,113.29,310.46,108.59,309.27,99.18ZM350.71,96a3.19,3.19,0,0,0-1.84-2.68,7.06,7.06,0,0,0-3.93-1c-3.07.11-6.63,1.63-10.58,4.62-2.31,1.82-4,2.79-5.07,2.87-1.56.12-2.39-.37-2.48-1.48-.2-2.47,2.38-5.59,8-9.2s10.86-5.44,15.56-5.54a16.57,16.57,0,0,1,10.54,3.21c3,2.21,4.41,4.85,4.37,7.85q-.31,14.67-.61,29.35a4.73,4.73,0,0,0,1.71,3.77,6.43,6.43,0,0,0,4.16,1.59c2.84.09,4.22,1.14,4.14,3.1-.07,1.71-1.57,2.5-4.49,2.42-.33,0-2-.23-4.91-.59a60.26,60.26,0,0,0-7.41-.52,46.27,46.27,0,0,0-8.36.68,39.92,39.92,0,0,1-4.36.68,4.23,4.23,0,0,1-2.64-.73,2.61,2.61,0,0,1-1.22-2.12c-.07-1.37.87-2.11,2.82-2.19a9.55,9.55,0,0,0,5-1.66,5,5,0,0,0,2.25-4.52Zm41.72,1.28a3.23,3.23,0,0,0-1.56-2.86,7,7,0,0,0-3.81-1.4c-2.44-.17-5.54.74-9.19,2.78s-6,3.07-7.15,3a3.53,3.53,0,0,1-1.93-.6,1.5,1.5,0,0,1-.83-1.29c0-2.18,2.76-4.9,8.36-8a29.78,29.78,0,0,1,17-3.93c6.63.55,10.95,3.22,12.85,7.78q1.07,2.1-1.27,21.5c-.65,4.9-1,7.35-1.63,12.25a4.19,4.19,0,0,0,1,3.63,9.68,9.68,0,0,0,4.12,2.22c1.89.6,3,1.17,3.36,1.69a2.44,2.44,0,0,1,.38,1.73c-.27,1.8-1.74,2.5-4.42,2.13-.38-.05-2-.43-4.87-1.1a59.77,59.77,0,0,0-7.37-1.29,40.06,40.06,0,0,0-6.7-.06,46.71,46.71,0,0,1-6,.1,4.25,4.25,0,0,1-2.55-1,2.63,2.63,0,0,1-1-2.24c.09-1.52,1.43-2.32,4-2.37s4.37-.5,5.28-1.4a5.33,5.33,0,0,0,1.56-3.51C391,114,391.5,108.4,392.43,97.27Z"/><path d="M446.2,132.89c-.55,2.31-.42,3.93.4,4.88a9,9,0,0,0,3.59,2.36,10.53,10.53,0,0,1,3.24,1.79,2.53,2.53,0,0,1,.38,2.62c-.42,1.56-2.18,1.92-5.3,1.12-1.35-.34-3.33-1-6-1.91a57.33,57.33,0,0,0-5.91-1.8,38.11,38.11,0,0,0-5.82-.62,49,49,0,0,1-5.74-.52,5.7,5.7,0,0,1-3.06-1.52,3,3,0,0,1-.93-2.7,2.18,2.18,0,0,1,1-1.51c.57-.37,1.91-.52,4-.43a7.4,7.4,0,0,0,4.6-.9q1.46-1,2.45-5.94l4.82-24c.41-2,.14-3.5-.82-4.37A13.43,13.43,0,0,0,432.61,97c-2.07-.72-3.32-1.38-3.75-2a2.73,2.73,0,0,1-.45-2.09,2.47,2.47,0,0,1,1.72-1.9,6,6,0,0,1,3.36-.26,25.75,25.75,0,0,1,4.41,1.38,29,29,0,0,0,4.21,1.4c1.05.22,2.68.42,4.9.63a40.83,40.83,0,0,1,4.89.69c2.29.53,3.07,2.27,2.37,5.19-.11.47-.29,1.09-.54,1.85s-.4,1.28-.47,1.57Q449.74,118.16,446.2,132.89Zm6.74-63.16a12.72,12.72,0,0,1,7.16,4.13c1.78,2.09,2.39,4.21,1.85,6.37-.47,1.91-1.92,3.28-4.31,4.12a14,14,0,0,1-7.79.33A12.84,12.84,0,0,1,443,80.91c-1.75-1.91-2.44-3.89-2-6s1.76-3.52,4.16-4.56A12.51,12.51,0,0,1,452.94,69.73Z"/><path d="M488.22,147a4.94,4.94,0,0,0,0,3.55c.42,1.14,1.84,2.36,4.24,3.71s3.74,2.43,4.07,3.2a3,3,0,0,1,0,2.38c-.59,1.46-2.16,1.66-4.71.65-1.56-.62-3.8-1.69-6.77-3.18a61,61,0,0,0-6.83-3,54,54,0,0,0-6.68-1.68c-3-.59-5.2-1.09-6.69-1.54-2.13-.65-3.44-1.27-3.92-1.87a2.12,2.12,0,0,1-.41-2,2.75,2.75,0,0,1,1.32-1.69c.66-.36,2.41-.33,5.24.16s4.84.31,6.06-.6a7.31,7.31,0,0,0,2.6-3.69L500.14,66.9a6.53,6.53,0,0,0-.2-4.76c-.68-1.57-2.6-3.17-5.8-4.76s-5.06-2.74-5.54-3.5a2.59,2.59,0,0,1-.41-2.19q.3-1.06,2.19-1.2a10.34,10.34,0,0,1,3.74.42,40.07,40.07,0,0,1,4.75,1.93,46.39,46.39,0,0,0,4.63,1.94q1.74.57,5.35,1.33a45,45,0,0,1,5.33,1.39,8.15,8.15,0,0,1,4.36,2.88q1.08,1.71,0,4.71Z"/><path d="M550.71,178.22c1.3.78,1.62,1.69,1,2.73-.78,1.28-3.74,1.63-8.8,1.24a33.43,33.43,0,0,1-13.43-3.7,23.33,23.33,0,0,1-7.49-6.88c-2.34-3.15-3.38-6.08-3-8.85s2-7.24,4.91-13.45l6.43-13.09c1.68-3.53.64-6.66-3.18-9.16A22.7,22.7,0,0,1,523,124a2.21,2.21,0,0,1-.13-2.43,2.7,2.7,0,0,1,1.6-1.5,3.12,3.12,0,0,1,2.45.16,38.41,38.41,0,0,1,4.7,2.9,52.09,52.09,0,0,0,4.5,2.88,51.8,51.8,0,0,0,5.32,1.82,42.32,42.32,0,0,1,5.06,1.77,3.75,3.75,0,0,1,1.23,1.21,2,2,0,0,1,.49,1.48c-.1.38-1.53,3.42-4.32,9.12S538.43,152.25,536,157a52.32,52.32,0,0,0-3.61,8.06,6.67,6.67,0,0,0,.8,5.43,13.82,13.82,0,0,0,5.48,5,16.29,16.29,0,0,0,7,1.89C548.31,177.48,550,177.8,550.71,178.22ZM587,153.33c1.91,1.27,2.19,2.9.86,4.87q-4,5.84-11.3,17.18t-10,15.18c-6.1,9-11.69,14.54-16.66,16.86s-9.24,3.44-12.9,3.33a24.17,24.17,0,0,1-11.31-3.58,23.86,23.86,0,0,1-7.21-5.78c-1.48-2-2-3.29-1.66-4a2,2,0,0,1,1.15-.83,2,2,0,0,1,1.66.11,9.24,9.24,0,0,1,1.94,1.87,13,13,0,0,0,3.51,2.78,16.93,16.93,0,0,0,9,2.06,12.69,12.69,0,0,0,8.71-3.48q3.62-3.39,8.67-11.43c6.69-10.7,13.82-21.43,19.91-32.27,1.23-2.2,0-4.86-3.62-7.7s-5.09-5-4.2-6.52,2.8-1.54,5.65.15c.95.57,2.6,1.72,4.92,3.48s4.26,3.17,5.86,4.18a25.28,25.28,0,0,0,4,2.08A21.34,21.34,0,0,1,587,153.33Z"/><line class="cls-2" x1="366.21" y1="192.29" x2="187.92" y2="370.58"/><line class="cls-2" x1="273.42" y1="282.22" x2="273.42" y2="191.58"/><line class="cls-2" x1="240.64" y1="503.61" x2="240.64" y2="341.83"/><line class="cls-2" x1="493.45" y1="506.5" x2="241.31" y2="506.5"/><line class="cls-2" x1="543.76" y1="371.27" x2="365.47" y2="192.98"/><line class="cls-2" x1="493.94" y1="342.27" x2="493.94" y2="504.05"/><path class="cls-3" d="M284.92,372.58c5.2-23.77,48.8-39,52.11-32.9"/><path class="cls-3" d="M376.33,335.48c19.81-14.13,62.37,3.82,60.71,10.58"/><text/><path class="cls-4" d="M295.57,460c31.66,19.74,125.38,34.3,156-49.84"/><line class="cls-4" x1="439.4" y1="397.91" x2="467.01" y2="419.29"/><path class="cls-4" d="M295.48,442.27s.16,32.7-13.34,32.27"/><path class="cls-5" d="M394.24,469.09c3-5.22,6.48-14.58,9.71-31.08s-6.54-42.92-7.77-51c-2.43-17.35,2.24-29.61,18-29.62,24.28-.49,24.18,66,26.37,76.63C434.54,450.15,395.94,468.36,394.24,469.09Z"/><path class="cls-6" d="M410.26,376.35c10.69,6.31,13.6,51.47,9.23,61.18"/><text class="cls-7" transform="translate(68.17 656.93)">of Eateries </text></svg>