<svg xmlns="http://www.w3.org/2000/svg" width="31.5" height="33.75" viewBox="0 0 31.5 33.75">
  <defs>
    <style>
      .cls-1 {
        fill: #818181;
        fill-rule: evenodd;
      }
    </style>
  </defs>
  <path id="date_icon" class="cls-1" d="M1803.36,5668.11h-1.62a7.212,7.212,0,0,0-.63-3.02,2.877,2.877,0,0,0-1.14-1.31,1.649,1.649,0,0,0-.91-0.25c-2.4,0-3.14,3.36-3.14,4.58h-0.68a7.381,7.381,0,0,0-.64-3.02,2.624,2.624,0,0,0-1.38-1.42,1.7,1.7,0,0,0-.7-0.14c-2.4,0-3.14,3.36-3.14,4.58h-0.64a7.381,7.381,0,0,0-.64-3.02,2.442,2.442,0,0,0-1.69-1.5,1.859,1.859,0,0,0-.43-0.06c-2.4,0-3.15,3.36-3.15,4.58h-0.6a7.212,7.212,0,0,0-.63-3.02,2.425,2.425,0,0,0-1.76-1.51,1.642,1.642,0,0,0-.41-0.05c-2.4,0-3.14,3.36-3.14,4.58h-0.08a2.137,2.137,0,0,0-2.17,2.11v24.95a2.143,2.143,0,0,0,2.17,2.11h27.15a2.152,2.152,0,0,0,2.18-2.11v-24.95A2.145,2.145,0,0,0,1803.36,5668.11Zm-3,3.87a1.629,1.629,0,0,1-3.1.65,2.214,2.214,0,0,0,1.31.39,1.386,1.386,0,0,0,.93-0.3,0.974,0.974,0,0,0,.33-0.72,0.944,0.944,0,0,0-.99-0.94,0.676,0.676,0,0,1-.52-0.6,1.4,1.4,0,0,1,.41-0.06A1.6,1.6,0,0,1,1800.36,5671.98Zm-0.25-3.87h-2c0-.91.47-2.61,1.37-2.61a0.835,0.835,0,0,1,.2.26A7.085,7.085,0,0,1,1800.11,5668.11Zm-1.05-4.01a1.008,1.008,0,0,1,.66.19,0.481,0.481,0,0,1,.18.34,0.349,0.349,0,0,1-.42.31c-1.37,0-1.94,2.06-1.94,3.17,0,1.23,0,3.51,1.3,3.51a0.379,0.379,0,0,1,.42.38,0.405,0.405,0,0,1-.14.3,0.858,0.858,0,0,1-.55.16c-1.84,0-2.09-2.2-2.09-4.35C1796.48,5667.08,1797.12,5664.1,1799.06,5664.1Zm-2.48,15.46v1.03h-4.21v-5.76h1.24v4.73h2.97Zm-4.35-6a1.614,1.614,0,0,1-1.45-.88,2.195,2.195,0,0,0,1.25.34,1.376,1.376,0,0,0,.92-0.3,0.979,0.979,0,0,0,.33-0.73,0.933,0.933,0,0,0-.98-0.93,0.663,0.663,0,0,1-.52-0.59,1.63,1.63,0,0,1,.45-0.07A1.58,1.58,0,1,1,1792.23,5673.56Zm-0.67-5.45c0-.91.47-2.61,1.37-2.61a0.7,0.7,0,0,1,.25.26,6.794,6.794,0,0,1,.43,2.35h-2.05Zm0.96-4.01a1.008,1.008,0,0,1,.66.19,0.467,0.467,0,0,1,.17.34,0.344,0.344,0,0,1-.42.31c-1.36,0-1.93,2.06-1.93,3.17,0,1.23,0,3.51,1.29,3.51a0.382,0.382,0,0,1,.43.38,0.405,0.405,0,0,1-.14.3,0.878,0.878,0,0,1-.55.16c-1.84,0-2.09-2.2-2.09-4.35C1789.94,5667.08,1790.57,5664.1,1792.52,5664.1Zm-4.85,10.73v3.54a1.94,1.94,0,0,0,.15.87,1.23,1.23,0,0,0,1.95,0,1.94,1.94,0,0,0,.15-0.87v-3.54h1.26v3.54a2.844,2.844,0,0,1-.3,1.43,2.189,2.189,0,0,1-2.08.94,2.225,2.225,0,0,1-2.1-.94,2.964,2.964,0,0,1-.29-1.43v-3.54h1.26Zm-1.95-1.27a1.62,1.62,0,0,1-1.43-.84,2.28,2.28,0,0,0,1.19.3,1.386,1.386,0,0,0,.93-0.3,0.979,0.979,0,0,0,.33-0.73,0.942,0.942,0,0,0-.99-0.93,0.664,0.664,0,0,1-.51-0.58,1.51,1.51,0,0,1,.48-0.08A1.581,1.581,0,1,1,1785.72,5673.56Zm-0.7-5.45c0-.91.47-2.61,1.37-2.61a0.77,0.77,0,0,1,.29.26,6.318,6.318,0,0,1,.43,2.35h-2.09Zm0.96-4.01a0.975,0.975,0,0,1,.65.19,0.481,0.481,0,0,1,.18.34,0.349,0.349,0,0,1-.42.31c-1.37,0-1.93,2.06-1.93,3.17,0,1.23,0,3.51,1.29,3.51a0.379,0.379,0,0,1,.42.38,0.405,0.405,0,0,1-.14.3,0.858,0.858,0,0,1-.55.16c-1.84,0-2.09-2.2-2.09-4.35C1783.39,5667.08,1784.03,5664.1,1785.98,5664.1Zm-4.61,14.31h1.17v0.13a2.618,2.618,0,0,0,.15.94,0.526,0.526,0,0,0,.54.27,0.546,0.546,0,0,0,.55-0.29,1.733,1.733,0,0,0,.07-0.6v-4.03h1.25v4.01a2.3,2.3,0,0,1-.26,1.17,1.677,1.677,0,0,1-1.56.73,1.7,1.7,0,0,1-1.52-.59,2.906,2.906,0,0,1-.39-1.61v-0.13Zm-2.16-7.35a0.663,0.663,0,0,1-.52-0.59,1.691,1.691,0,0,1,.45-0.07,1.581,1.581,0,1,1,0,3.16,1.62,1.62,0,0,1-1.44-.87,2.238,2.238,0,0,0,1.24.33,1.341,1.341,0,0,0,.92-0.3,0.945,0.945,0,0,0,.33-0.73A0.933,0.933,0,0,0,1779.21,5671.06Zm-0.73-2.95c0-.91.47-2.61,1.37-2.61a0.774,0.774,0,0,1,.33.26,6.087,6.087,0,0,1,.43,2.35h-2.13Zm0.95-4.01a1.008,1.008,0,0,1,.66.19,0.467,0.467,0,0,1,.17.34,0.34,0.34,0,0,1-.41.31c-1.37,0-1.94,2.06-1.94,3.17,0,1.23,0,3.51,1.3,3.51a0.377,0.377,0,0,1,.42.37,0.41,0.41,0,0,1-.14.31,0.858,0.858,0,0,1-.55.16c-1.84,0-2.09-2.2-2.09-4.35C1776.85,5667.08,1777.49,5664.1,1779.43,5664.1Zm23.35,31.07a1.015,1.015,0,0,1-1.04.98h-25.53a1.018,1.018,0,0,1-1.05-.98v-12.44h27.62v12.44Zm-19.28.26h2.29v-11.59h-1.86a1.8,1.8,0,0,1-.09.46,1.876,1.876,0,0,1-.44.83,2,2,0,0,1-1.09.61,9.785,9.785,0,0,1-1.48.15v1.55h2.67v7.99Zm9.16-6.48a14.128,14.128,0,0,0-2.01,6.48h2.32a11.064,11.064,0,0,1,.39-2.56,15.614,15.614,0,0,1,.86-2.63,15.38,15.38,0,0,1,1.5-2.67,15.768,15.768,0,0,1,1.4-1.8v-1.78h-8.03l-0.03,2.05h5.66A15.543,15.543,0,0,0,1792.66,5688.95Z" transform="translate(-1774.03 -5663.53)"/>
</svg>
