<svg xmlns="http://www.w3.org/2000/svg" width="33.75" height="33.75" viewBox="0 0 33.75 33.75">
  <defs>
    <style>
      .cls-1 {
        fill: #818181;
        fill-rule: evenodd;
      }
    </style>
  </defs>
  <path id="email_icon" class="cls-1" d="M1800.59,5910.55l-11.94.8,0.13-5.3-8.49.39-0.14,5.47-6.26.42a3.272,3.272,0,0,0-2.27,2.91l-1.79,16.5c-0.09.86-.02,2.87,1.67,3.18l25.97,4.83a2.81,2.81,0,0,0,.5.04,3.226,3.226,0,0,0,3.13-2.69l2.43-22.46C1803.76,5912.54,1802.48,5910.42,1800.59,5910.55Zm-26.63,2.79,6.17-.41-0.04,1.56-2.75.03,6.6,9.85,9.32-9.62-4.7-.09,0.06-2.3,12.04-.8a1.566,1.566,0,0,1,.95.23l-18.03,16.34-10.12-14.55A0.857,0.857,0,0,1,1773.96,5913.34Zm-3.11,18.5,1.79-16.49a3.1,3.1,0,0,1,.21-0.86l6.59,9.32-8.58,8.81A3.377,3.377,0,0,1,1770.85,5931.84Zm26.81,6.92-25.98-4.83a0.742,0.742,0,0,1-.41-0.28l8.22-8.44,0.53-.55,3.36,4.99,5.22-4.57,1.69,2.25,8.45,11.27A1.757,1.757,0,0,1,1797.66,5938.76Zm4.85-24.73-2.43,22.46a2.986,2.986,0,0,1-.56,1.45l-10.15-13.54,12.91-11.84a2.636,2.636,0,0,1,.23,1.47h0Z" transform="translate(-1769.81 -5906.03)"/>
</svg>
