<svg xmlns="http://www.w3.org/2000/svg" width="56" height="55" viewBox="0 0 56 55">
  <defs>
    <style>
      .cls-1 {
        fill: #fff;
        fill-rule: evenodd;
      }
    </style>
  </defs>
  <path id="hamburger_menu" class="cls-1" d="M2347.8,4835h46.4a4.8,4.8,0,0,1,4.8,4.8h0a4.793,4.793,0,0,1-4.8,4.79h-46.4a4.793,4.793,0,0,1-4.8-4.79h0A4.8,4.8,0,0,1,2347.8,4835Zm0,21.75h46.4a4.8,4.8,0,0,1,4.8,4.8h0a4.793,4.793,0,0,1-4.8,4.79h-46.4a4.793,4.793,0,0,1-4.8-4.79h0A4.8,4.8,0,0,1,2347.8,4856.75Zm0,23.66h46.4a4.793,4.793,0,0,1,4.8,4.79h0a4.8,4.8,0,0,1-4.8,4.8h-46.4a4.8,4.8,0,0,1-4.8-4.8h0A4.793,4.793,0,0,1,2347.8,4880.41Z" transform="translate(-2343 -4835)"/>
</svg>
