<svg xmlns="http://www.w3.org/2000/svg" xmlns:xlink="http://www.w3.org/1999/xlink" width="38.62" height="45.97" viewBox="0 0 38.62 45.97">
  <defs>
    <style>
      .cls-1 {
        fill: #818181;
        fill-rule: evenodd;
        filter: url(#filter);
      }
    </style>
    <filter id="filter" x="1772.16" y="5575.03" width="38.62" height="45.97" filterUnits="userSpaceOnUse">
      <feGaussianBlur result="blur" stdDeviation="6.325" in="SourceAlpha"/>
      <feFlood result="flood" flood-color="#3d3d3d" flood-opacity="0.48"/>
      <feComposite result="composite" operator="out" in2="blur"/>
      <feOffset result="offset" dx="1.5" dy="2.598"/>
      <feComposite result="composite-2" operator="in" in2="SourceAlpha"/>
      <feBlend result="blend" mode="multiply" in2="SourceGraphic"/>
    </filter>
  </defs>
  <path id="name_icon" class="cls-1" d="M1790.84,5594.79c5.03,0,10.15-4.71,10.15-9.7s-4.88-10.07-9.91-10.07-10.03,5.2-10.03,10.19S1785.81,5594.79,1790.84,5594.79Zm19.81,28.89v-14.96c0-4.9.33-4.43,0-7.49-1.25-3.74-3.77-4.99-6.28-4.99h-11.32c-5.06,0-7.51-.01-12.54-0.01-2.51,0-4.15-.17-6.02,1.51-2.54,2.86-2.29,3.11-2.29,11.1v15.23c0,3.94-.67,10.07,3.31,10.07,3.78,0,3.74-2.67,3.74-6.65,0-5.62-.01-7.08-0.01-10.4,0-3.63-.21-4.25.53-4.25s0.73,0.05.73,3.91c0,3.57-.03,53.92-0.03,56.83,0,2.49,1.34,5.17,5.13,5.17s5.35-2.2,5.35-4.69v-26.19c0-2.5.09-3.71,0.71-3.71,0.64,0,.55,1.21.55,3.71v26.19a5.439,5.439,0,0,0,5.44,4.92c2.51,0,4.83-3.2,4.83-4.87,0-9.97.05-54.38,0.05-57.52,0-1.7-.14-3.86.5-3.86s0.63,0.59.63,3.04v9.61c0,6.56,1.03,8.28,3.54,8.28C1810.97,5633.66,1810.65,5627.26,1810.65,5623.68Z" transform="translate(-1772.16 -5575.03)"/>
</svg>
