<svg xmlns="http://www.w3.org/2000/svg" width="33.72" height="33.75" viewBox="0 0 33.72 33.75">
  <defs>
    <style>
      .cls-1 {
        fill: #818181;
        fill-rule: evenodd;
      }
    </style>
  </defs>
  <path id="people_icon" class="cls-1" d="M1777.89,5835.48a1.265,1.265,0,1,0-2.53,0A1.265,1.265,0,0,0,1777.89,5835.48Zm6.04,0a1.27,1.27,0,1,0-1.27,1.26A1.272,1.272,0,0,0,1783.93,5835.48Zm-6.5,4.13a2.468,2.468,0,0,0,4.42,0c0.11-.19-0.03-0.4-0.19-0.28a3.084,3.084,0,0,1-4.04,0C1777.46,5839.21,1777.32,5839.42,1777.43,5839.61Zm19.08-14.43c-3.52,0-3.87,1.41-3.87,1.41s-4.56-.13-4.56,6.84c0-6.97-4.57-6.84-4.57-6.84s-0.34-1.41-3.87-1.41c-5.46,0-8.44,3.56-8.44,8.25v25.5h33.75v-25.5C1804.95,5828.74,1801.97,5825.18,1796.51,5825.18Zm-23.34,8.56c3.06-.04,7.63-3.39,8.77-4.26,0.54,0.93,2.32,3.79,4.14,4.25,0.01,0,.74.16,0.74,1.45a1.746,1.746,0,0,1-1.08,1.9l-0.22.05v0.22c-0.01,2.7-3.73,5.34-5.88,5.34-2.12,0-5.93-2.69-5.93-5.33v-0.22l-0.21-.06a1.742,1.742,0,0,1-1.04-1.9A1.376,1.376,0,0,1,1773.17,5833.74Zm2.11,18.51,0.15,0.01,0.08-.05a4.5,4.5,0,0,0,2.06-3.58c2.19,2.06,7.46,2.53,8.73,2.62v0.72l0.03,0.28h0.28a0.573,0.573,0,0,1,.68.55,0.535,0.535,0,0,1-.55.66,0.8,0.8,0,0,1-.11-0.01l-0.33-.06v0.34c0,1.82-2.81,3.23-5.22,3.23-2.54,0-5.43-1.72-5.43-3.23l-0.01-.33-0.32.05a0.8,0.8,0,0,1-.11.01,0.539,0.539,0,0,1-.57-0.66A0.531,0.531,0,0,1,1775.28,5852.25Zm-0.17-2.23v-0.67c0-2.22,2.35-4.02,5.86-4.02,3.62,0,5.85,1.8,5.85,4.02v0.67c0-2.23-2.23-4.02-5.85-4.02C1777.46,5846,1775.11,5847.79,1775.11,5850.02Zm-0.44,8.35a3.705,3.705,0,0,1,2.58-1.9,7.572,7.572,0,0,0,7.66.02,3.612,3.612,0,0,1,2.51,1.88h-12.75Zm13.12-3.78a6.439,6.439,0,0,0-.35-0.8,1.094,1.094,0,0,0,.35-0.55v1.35Zm0-2.17a0.984,0.984,0,0,0-.31-0.45v-2.13c0-3.07-2.48-5.54-6.51-5.54-3.9,0-6.52,2.47-6.52,5.54v2.1a1.043,1.043,0,0,0-.37.86,1.138,1.138,0,0,0,.52,1.06,3.98,3.98,0,0,0-.28,3.52,1.148,1.148,0,0,0,.16.18,2.311,2.311,0,0,0-.38.81h-2.32v-14.76c0-.64,1.67-1.32,4.38-1.66a6.686,6.686,0,0,0,3.48,1.3,6.609,6.609,0,0,0,3.49-1.33c2.87,0.32,4.66,1.02,4.66,1.7v8.8Zm2.29-18.69c1.81-.46,3.59-3.32,4.13-4.25,1.15,0.87,5.71,4.22,8.78,4.26a1.376,1.376,0,0,1,.71,1.44,1.743,1.743,0,0,1-1.05,1.9l-0.2.06-0.01.22c0,2.64-3.8,5.33-5.93,5.33-2.15,0-5.86-2.64-5.88-5.34v-0.22l-0.21-.05a1.748,1.748,0,0,1-1.09-1.9C1789.33,5833.89,1790.07,5833.73,1790.08,5833.73Zm-1.35,24.64a3.786,3.786,0,0,1,2.65-1.93,6.991,6.991,0,0,0,7.45.01,3.729,3.729,0,0,1,2.65,1.92h-12.75Zm0.84-5.36a0.709,0.709,0,0,1,0-1.41h0.25l0.26-2.8c0-.35.11-0.53,0.71-0.53a10.8,10.8,0,0,1,1.54.19,13.031,13.031,0,0,0,5.56,0,10.638,10.638,0,0,1,1.54-.19c0.6,0,.71.18,0.71,0.55l0.25,2.78h0.26a0.709,0.709,0,0,1,0,1.41h-0.29v0.28c0,2.24-3.11,3.67-5.25,3.67s-5.26-1.43-5.26-3.67v-0.28h-0.28Zm14.81,5.36h-2.32a3.832,3.832,0,0,0-2.66-2.32,3.635,3.635,0,0,0,1.52-2.5,1.223,1.223,0,0,0,.92-1.24,1.264,1.264,0,0,0-.63-1.13c0.01-.11.02-0.22,0.02-0.34v-1.77c0-2.64-2.46-4.77-6.12-4.77-3.79,0-6.12,2.13-6.12,4.77v1.77a3.251,3.251,0,0,0,.02.33,1.26,1.26,0,0,0-.63,1.14,1.212,1.212,0,0,0,.92,1.24,3.6,3.6,0,0,0,1.52,2.5,4.38,4.38,0,0,0-2.45,1.79v-14.23c0-.67,1.78-1.37,4.65-1.69a6.609,6.609,0,0,0,3.49,1.33,6.686,6.686,0,0,0,3.48-1.3c2.72,0.34,4.39,1.02,4.39,1.66v14.76Zm-3.58-22.89a1.265,1.265,0,1,0-2.53,0A1.265,1.265,0,0,0,1800.8,5835.48Zm-6.04,0a1.265,1.265,0,1,0-2.53,0A1.265,1.265,0,0,0,1794.76,5835.48Zm-0.46,4.13a2.56,2.56,0,0,0,2.21,1.37,2.59,2.59,0,0,0,2.22-1.37c0.1-.19-0.04-0.4-0.2-0.28a3.084,3.084,0,0,1-4.04,0C1794.33,5839.21,1794.19,5839.42,1794.3,5839.61Zm-0.89,12.45a0.985,0.985,0,1,0-.99.99A0.984,0.984,0,0,0,1793.41,5852.06Zm5.37,0a0.985,0.985,0,1,0-.99.99A0.984,0.984,0,0,0,1798.78,5852.06Zm-5.6,2.81a2.2,2.2,0,0,0,3.86,0c0.09-.16-0.03-0.34-0.17-0.24a2.775,2.775,0,0,1-3.53,0C1793.21,5854.53,1793.08,5854.71,1793.18,5854.87Zm-8.58-2.81a0.985,0.985,0,1,0-.99.99A0.984,0.984,0,0,0,1784.6,5852.06Zm-5.15,0a0.985,0.985,0,1,0-.98.99A0.982,0.982,0,0,0,1779.45,5852.06Zm-0.34,2.81a2.2,2.2,0,0,0,3.86,0c0.1-.16-0.03-0.34-0.16-0.24a2.789,2.789,0,0,1-3.54,0C1779.14,5854.53,1779.01,5854.71,1779.11,5854.87Z" transform="translate(-1771.22 -5825.19)"/>
</svg>
