<svg xmlns="http://www.w3.org/2000/svg" width="37.87" height="37.91" viewBox="0 0 37.87 37.91">
  <defs>
    <style>
      .cls-1 {
        fill: #818181;
        fill-rule: evenodd;
      }
    </style>
  </defs>
  <path id="phone_icon" class="cls-1" d="M1770.17,5999.13a27.015,27.015,0,0,0,1,7.39,27.885,27.885,0,0,0,2.8,6.64,27.908,27.908,0,0,0,9.97,9.97,28.123,28.123,0,0,0,6.64,2.8,27.381,27.381,0,0,0,7.38.99c0.11,0,.22.01,0.33,0.01s0.22,0.01.32,0.01a8.091,8.091,0,0,0,1.53-.15c0.53-.1,1.03-0.21,1.5-0.34a6.687,6.687,0,0,0,1.79-.79,8.124,8.124,0,0,0,1.51-1.23,8.794,8.794,0,0,0,1.21-1.56,10.536,10.536,0,0,0,.85-1.76c0.09-.26.2-0.56,0.32-0.88s0.24-.67.36-1.01,0.2-.69.28-1.02a4.577,4.577,0,0,0,.11-0.91,3.585,3.585,0,0,0-.19-1.17,4,4,0,0,0-1.36-1.88,4.059,4.059,0,0,0-1.05-.55l-8.97-2.99a3.887,3.887,0,0,0-1.19-.19,3.986,3.986,0,0,0-1.42.23,3.185,3.185,0,0,0-1.04.66,4.578,4.578,0,0,0-.77,1,9.628,9.628,0,0,0-.58,1.29,7.715,7.715,0,0,0-.26.77,4.6,4.6,0,0,1-.29.76,0.81,0.81,0,0,1-.25.23,0.591,0.591,0,0,1-.31.1,0.476,0.476,0,0,1-.38-0.15c-0.09-.1-0.18-0.19-0.27-0.29l-7.75-7.73c-0.1-.1-0.2-0.19-0.29-0.28a0.528,0.528,0,0,1-.15-0.39,0.651,0.651,0,0,1,.1-0.32,0.666,0.666,0,0,1,.23-0.24,3.628,3.628,0,0,1,.76-0.29c0.27-.08.52-0.16,0.77-0.26a8.526,8.526,0,0,0,1.29-.59,4.117,4.117,0,0,0,1.01-.76,3.006,3.006,0,0,0,.65-1.04,4.025,4.025,0,0,0,.23-1.42,3.949,3.949,0,0,0-.19-1.2l-2.99-8.96a3.762,3.762,0,0,0-.55-1.05,3.888,3.888,0,0,0-.84-0.83,4.142,4.142,0,0,0-1.05-.53,3.57,3.57,0,0,0-1.16-.19,3.879,3.879,0,0,0-.91.11c-0.33.08-.67,0.17-1.02,0.28s-0.68.23-1.01,0.36-0.62.24-.88,0.34a8.965,8.965,0,0,0-2.37,1.26,8.45,8.45,0,0,0-1.84,1.84,8.655,8.655,0,0,0-1.19,2.3,8.371,8.371,0,0,0-.42,2.66v0.95Z" transform="translate(-1770.19 -5989.03)"/>
</svg>
