<svg xmlns="http://www.w3.org/2000/svg" width="38.13" height="38.12" viewBox="0 0 38.13 38.12">
  <defs>
    <style>
      .cls-1 {
        fill: #fff;
        fill-rule: evenodd;
      }
    </style>
  </defs>
  <path id="reservation" class="cls-1" d="M2290.65,1535.24a3.058,3.058,0,0,0-1.03.65,3.855,3.855,0,0,0-.77.99,8.155,8.155,0,0,0-.59,1.26c-0.1.26-.19,0.53-0.27,0.82a4.214,4.214,0,0,1-.32.79,0.666,0.666,0,0,1-.24.23,0.678,0.678,0,0,1-.32.11,0.476,0.476,0,0,1-.38-0.15c-0.09-.1-0.18-0.2-0.28-0.3l-7.8-7.78c-0.09-.09-0.19-0.19-0.29-0.28a0.5,0.5,0,0,1-.15-0.39,0.678,0.678,0,0,1,.11-0.32,0.706,0.706,0,0,1,.23-0.25,4.99,4.99,0,0,1,.79-0.31c0.29-.09.56-0.17,0.83-0.27a9.345,9.345,0,0,0,1.27-.59,4.515,4.515,0,0,0,.99-0.77,3.133,3.133,0,0,0,.64-1.03,4.259,4.259,0,0,0,.22-1.41,3.969,3.969,0,0,0-.2-1.2l-3-9.02a3.994,3.994,0,0,0-.56-1.06,3.888,3.888,0,0,0-.84-0.83,4.015,4.015,0,0,0-1.05-.54,3.689,3.689,0,0,0-1.18-.19,4.577,4.577,0,0,0-.91.11,10.668,10.668,0,0,0-1.03.29c-0.34.11-.68,0.23-1.01,0.36s-0.63.24-.89,0.33a10.385,10.385,0,0,0-2.39,1.3,8.676,8.676,0,0,0-1.84,1.84,8.342,8.342,0,0,0-1.2,2.29,8.467,8.467,0,0,0-.42,2.69v0.96a27.357,27.357,0,0,0,1,7.43,28.013,28.013,0,0,0,12.85,16.71,28.469,28.469,0,0,0,6.68,2.82,27.3,27.3,0,0,0,7.43,1,13.741,13.741,0,0,0,3.03-.32,8.369,8.369,0,0,0,2.56-1.02,7.955,7.955,0,0,0,2.03-1.82,9.5,9.5,0,0,0,1.47-2.68c0.11-.28.22-0.59,0.35-0.92s0.24-.68.34-1.02,0.2-.68.28-1.01a4.4,4.4,0,0,0,.11-0.9,3.689,3.689,0,0,0-.19-1.18,4.015,4.015,0,0,0-.54-1.05,3.888,3.888,0,0,0-.83-0.84,3.994,3.994,0,0,0-1.06-.56l-9.02-3A4.065,4.065,0,0,0,2290.65,1535.24Zm4.08,13.74a24.736,24.736,0,0,1-6.76-.91,25.335,25.335,0,0,1-6.07-2.56,25.492,25.492,0,0,1-9.11-9.11,25.335,25.335,0,0,1-2.56-6.07,24.788,24.788,0,0,1-.91-6.76v-0.96a5.859,5.859,0,0,1,.3-1.87,6.325,6.325,0,0,1,.84-1.66,5.727,5.727,0,0,1,1.3-1.3,5.85,5.85,0,0,1,1.68-.88,14.317,14.317,0,0,1,1.73-.5q0.885-.21,1.77-0.45l3.82,11.44-3.5.95a5.753,5.753,0,0,0-1.14,1.24,2.848,2.848,0,0,0-.46,1.61,2.6,2.6,0,0,0,.36,1.42,6.437,6.437,0,0,0,.92,1.13l7.62,7.62a5.854,5.854,0,0,0,1.13.92,2.649,2.649,0,0,0,1.42.35,2.837,2.837,0,0,0,.86-0.12,3.046,3.046,0,0,0,.73-0.34,5.111,5.111,0,0,0,.64-0.51c0.2-.19.4-0.39,0.62-0.6l0.97-3.5,11.42,3.8q-0.24.885-.45,1.77a14.317,14.317,0,0,1-.5,1.73,6.109,6.109,0,0,1-.88,1.68,5.574,5.574,0,0,1-1.31,1.3,6.115,6.115,0,0,1-1.65.84,5.9,5.9,0,0,1-1.87.3h-0.96Z" transform="translate(-2266.78 -1513.41)"/>
</svg>
