<svg xmlns="http://www.w3.org/2000/svg" width="54" height="54" viewBox="0 0 54 54">
  <defs>
    <style>
      .cls-1 {
        fill: #fff;
        fill-rule: evenodd;
      }
    </style>
  </defs>
  <path id="specials_icon" data-name="specials icon" class="cls-1" d="M2079.5,1524.29a18.48,18.48,0,0,0-19.79-4.77,18.961,18.961,0,0,0-5.53,3.17v-8.47a4.191,4.191,0,0,0-.33-1.65,4.432,4.432,0,0,0-.9-1.35,4.2,4.2,0,0,0-1.35-.9,4.143,4.143,0,0,0-1.64-.33h-6.74a4.134,4.134,0,0,0-1.66.33,4.386,4.386,0,0,0-1.34.9,4.432,4.432,0,0,0-.9,1.35,4.191,4.191,0,0,0-.33,1.65v11.81a7.473,7.473,0,0,0,.43,2.53,7.342,7.342,0,0,0,1.26,2.23v27.29a5.686,5.686,0,0,0,.47,2.29,6.236,6.236,0,0,0,1.27,1.88,6.052,6.052,0,0,0,1.86,1.28,5.721,5.721,0,0,0,2.29.47,5.782,5.782,0,0,0,2.31-.47,6.124,6.124,0,0,0,1.87-1.27,5.833,5.833,0,0,0,1.27-1.88,5.6,5.6,0,0,0,.47-2.3v-8.38a18.571,18.571,0,0,0,6.13,4.34,18.54,18.54,0,0,0,14.75,0,18.469,18.469,0,0,0,6.13-4.34v8.38a5.769,5.769,0,0,0,.47,2.3,5.833,5.833,0,0,0,1.27,1.88,6.171,6.171,0,0,0,1.88,1.27,5.838,5.838,0,0,0,4.59,0,6.088,6.088,0,0,0,3.13-3.16,5.686,5.686,0,0,0,.47-2.29v-17.71a1.673,1.673,0,0,0,1.69-1.69v-18.57a9.661,9.661,0,0,0-.8-3.93,10.154,10.154,0,0,0-5.39-5.39,9.794,9.794,0,0,0-3.93-.8h-3.38v14.3Zm-17.54,27.35a15,15,0,0,1-3.63-1.53,15.736,15.736,0,0,1-3.07-2.39,15.333,15.333,0,0,1-2.38-3.06,14.637,14.637,0,0,1-1.54-3.63,15.383,15.383,0,0,1,0-8.08,14.41,14.41,0,0,1,1.54-3.62,15.463,15.463,0,0,1,5.45-5.45,14.637,14.637,0,0,1,3.63-1.54,15.383,15.383,0,0,1,8.08,0,14.729,14.729,0,0,1,3.62,1.54,15.463,15.463,0,0,1,5.45,5.45,14.41,14.41,0,0,1,1.54,3.62,15.383,15.383,0,0,1,0,8.08,14.637,14.637,0,0,1-1.54,3.63,15.333,15.333,0,0,1-2.38,3.06,15.736,15.736,0,0,1-3.07,2.39,15.1,15.1,0,0,1-3.62,1.53A15.383,15.383,0,0,1,2061.96,1551.64Zm-0.56-25.53a11.9,11.9,0,0,0-6.29,6.29,11.817,11.817,0,0,0,0,9.19,11.848,11.848,0,0,0,15.48,6.29,12.01,12.01,0,0,0,3.75-2.54,11.776,11.776,0,0,0,2.54-3.76,11.792,11.792,0,0,0,0-9.18,11.9,11.9,0,0,0-6.29-6.29A11.817,11.817,0,0,0,2061.4,1526.11Zm0.66,20.2a10.212,10.212,0,0,1-3.22-2.17,10.337,10.337,0,0,1-2.17-3.21,10.078,10.078,0,0,1,0-7.87,10.154,10.154,0,0,1,5.39-5.39,10.078,10.078,0,0,1,7.87,0,10.154,10.154,0,0,1,5.39,5.39,10.078,10.078,0,0,1,0,7.87,10.337,10.337,0,0,1-2.17,3.21,10.212,10.212,0,0,1-3.22,2.17A10.078,10.078,0,0,1,2062.06,1546.31Zm27.07-9.81a1.63,1.63,0,0,1-1.2.49v1.69h-5.05v-25.31a6.573,6.573,0,0,1,2.63.53,6.721,6.721,0,0,1,3.58,3.58,6.573,6.573,0,0,1,.53,2.63v15.19A1.63,1.63,0,0,1,2089.13,1536.5Zm-40.22,22.58a2.414,2.414,0,0,1-.54.79,2.7,2.7,0,0,1-.81.55,2.53,2.53,0,0,1-.99.19,2.462,2.462,0,0,1-.99-0.19,2.364,2.364,0,0,1-.79-0.56,2.644,2.644,0,0,1-.53-0.81,2.44,2.44,0,0,1-.2-0.97v-26.16h5.05v26.16A2.55,2.55,0,0,1,2048.91,1559.08Zm38.82,0a2.414,2.414,0,0,1-.54.79,2.7,2.7,0,0,1-.81.55,2.53,2.53,0,0,1-.99.19,2.462,2.462,0,0,1-.99-0.19,2.364,2.364,0,0,1-.79-0.56,2.644,2.644,0,0,1-.53-0.81,2.44,2.44,0,0,1-.2-0.97v-17.71h5.05v17.71A2.55,2.55,0,0,1,2087.73,1559.08Zm-38.62-28.83h-5.05v-0.87a4.673,4.673,0,0,1-1.22-1.49,3.921,3.921,0,0,1-.47-1.86v-11.81a0.854,0.854,0,0,1,.85-0.85,0.837,0.837,0,0,1,.84.85v9.27a0.8,0.8,0,0,0,.25.6,0.822,0.822,0,0,0,.6.25,0.762,0.762,0,0,0,.57-0.26,0.81,0.81,0,0,0,.25-0.59v-9.27a0.784,0.784,0,0,1,.26-0.59,0.8,0.8,0,0,1,.58-0.26,0.854,0.854,0,0,1,.85.85v9.27a0.8,0.8,0,0,0,.25.6,0.833,0.833,0,0,0,1.19,0,0.8,0.8,0,0,0,.25-0.6v-9.27a0.845,0.845,0,0,1,1.69,0v11.81a3.809,3.809,0,0,1-.47,1.86,4.673,4.673,0,0,1-1.22,1.49v0.87Z" transform="translate(-2039 -1510)"/>
</svg>
