<svg xmlns="http://www.w3.org/2000/svg" width="27.03" height="33.75" viewBox="0 0 27.03 33.75">
  <defs>
    <style>
      .cls-1 {
        fill: #818181;
        fill-rule: evenodd;
      }
    </style>
  </defs>
  <path id="time_icon" class="cls-1" d="M1797.31,5749.71l0.71-.71,0.55,0.55,1.68-1.66a0.851,0.851,0,0,0,0-1.2l-1.51-1.49a0.851,0.851,0,0,0-1.2,0l-1.68,1.66,0.56,0.55-0.71.7a13.467,13.467,0,0,0-7.91-3.13v-0.67a3.24,3.24,0,1,0-1.6,0v0.67a13.467,13.467,0,0,0-7.91,3.13l-0.71-.7,0.55-.55-1.67-1.66a0.851,0.851,0,0,0-1.2,0l-1.51,1.49a0.851,0.851,0,0,0,0,1.2l1.67,1.66,0.56-.55,0.71,0.71a13.239,13.239,0,0,0-3.19,8.63,13.5,13.5,0,0,0,27,0A13.239,13.239,0,0,0,1797.31,5749.71Zm-11.67-9.07v2.41a2.254,2.254,0,0,1-.96-1.85,2.315,2.315,0,0,1,4.63,0,2.272,2.272,0,0,1-.95,1.85v-2.41C1788.36,5739.82,1785.64,5739.82,1785.64,5740.64Zm1.36,29.31a11.605,11.605,0,1,1,11.7-11.61A11.658,11.658,0,0,1,1787,5769.95Zm0-22.32v0.89h-0.38v3.02H1787v5.29a1.51,1.51,0,1,0,0,3.02,1.44,1.44,0,0,0,.51-0.09l5.69,4.67,1.47,1.45a10.643,10.643,0,0,0,3.13-7.54A10.761,10.761,0,0,0,1787,5747.63Zm7.62,16.7-6.1-6a1.482,1.482,0,0,0-.44-1.05v-8.52a9.779,9.779,0,0,1,3.44,1.05l-0.66,1.15,0.66,0.38,0.66-1.15a9.78,9.78,0,0,1,3.03,3.01l-1.15.66,0.38,0.66,1.15-.66a9.494,9.494,0,0,1,1.11,4.11h-2.85v0.75h2.85a9.4,9.4,0,0,1-1.1,4.11l-1.16-.66-0.38.66,1.16,0.66C1795.03,5763.77,1794.84,5764.06,1794.62,5764.33Zm-8,.81v3.02h0.76v-3.02h-0.76Zm-9.52-7.17v0.75h3.05v-0.75h-3.05Zm4.62-7.94,0.76,1.31,0.66-.38-0.76-1.31Zm-1.78,3.83-1.32-.75-0.38.65,1.32,0.76Zm-1.7,9.07,0.38,0.65,1.32-.76-0.38-.65Zm3.48,3.73,0.66,0.38,0.76-1.31-0.66-.38Zm9.14-.93,0.76,1.31,0.66-.38-0.76-1.31Z" transform="translate(-1773.5 -5738)"/>
</svg>
