<svg xmlns="http://www.w3.org/2000/svg" xmlns:xlink="http://www.w3.org/1999/xlink" viewBox="0 0 374.72 183.82"><defs><style>.cls-1{fill:url(#Soft_Black_Vignette);}.cls-2{fill:url(#Lens_Vignette);}.cls-3{fill:url(#Lens_Vignette-2);}.cls-4{fill:url(#Lens_Vignette-3);}.cls-5{fill:url(#Summer_Turquoise);}.cls-6{fill:url(#Summer_Turquoise-2);}.cls-7{fill:#f15b2b;}</style><radialGradient id="Soft_Black_Vignette" cx="361.88" cy="128.62" r="12.85" gradientUnits="userSpaceOnUse"><stop offset="0.74" stop-color="#151011" stop-opacity="0"/><stop offset="0.82" stop-color="#151011" stop-opacity="0.22"/><stop offset="0.89" stop-color="#151011" stop-opacity="0.65"/><stop offset="0.9" stop-color="#151011" stop-opacity="0.73"/><stop offset="1" stop-color="#151011" stop-opacity="0.95"/></radialGradient><radialGradient id="Lens_Vignette" cx="83.52" cy="94.35" r="13.18" gradientUnits="userSpaceOnUse"><stop offset="0.49" stop-color="#fff" stop-opacity="0"/><stop offset="0.55" stop-color="#fff" stop-opacity="0.08"/><stop offset="0.68" stop-color="#fff" stop-opacity="0.3"/><stop offset="0.7" stop-color="#fff" stop-opacity="0.35"/><stop offset="0.76" stop-color="#c0c3c5" stop-opacity="0.38"/><stop offset="0.88" stop-color="#1d2830" stop-opacity="0.47"/><stop offset="0.89" stop-color="#0f1b23" stop-opacity="0.48"/><stop offset="0.93" stop-color="#121b22" stop-opacity="0.8"/><stop offset="0.97" stop-color="#131b21" stop-opacity="0.95"/><stop offset="1" stop-color="#fff"/></radialGradient><radialGradient id="Lens_Vignette-2" cx="108.5" cy="108.21" r="5.57" xlink:href="#Lens_Vignette"/><radialGradient id="Lens_Vignette-3" cx="107.26" cy="81.93" r="9.35" xlink:href="#Lens_Vignette"/><linearGradient id="Summer_Turquoise" x1="126.62" y1="65.08" x2="258.31" y2="65.08" gradientUnits="userSpaceOnUse"><stop offset="0" stop-color="#64c9d3"/><stop offset="0.16" stop-color="#47c1cd"/><stop offset="0.5" stop-color="#10b3c1"/><stop offset="0.68" stop-color="#0cafb1"/><stop offset="1" stop-color="#05a99a"/></linearGradient><linearGradient id="Summer_Turquoise-2" x1="0" y1="136.57" x2="367.3" y2="136.57" xlink:href="#Summer_Turquoise"/></defs><title>Asset 1</title><g id="Layer_2" data-name="Layer 2"><g id="Layer_1-2" data-name="Layer 1"><circle class="cls-1" cx="361.88" cy="128.62" r="12.85"/><circle class="cls-2" cx="83.52" cy="94.35" r="13.18"/><circle class="cls-3" cx="108.5" cy="108.21" r="5.57"/><circle class="cls-4" cx="107.26" cy="81.93" r="9.35"/><path class="cls-5" d="M126.62,73.52c0-26.77,14.66-45.92,31.72-56.84C175.14,6.18,196.73,0,222.06,0c13.06,0,23.46,1.44,29.32,3.91A1.86,1.86,0,0,1,252.72,6l2.93,28.83c.26,1-2.4,2.27-3.73,2.27-.27,0-.54,0-1.07-.62-5.07-8.65-10.93-18.74-15.2-25.54a13.65,13.65,0,0,0-4-4.11c-1.6-1.24-5.06-2.68-10.39-2.68-10.4,0-21.86,4.53-31.19,12.56-14.13,13-21.33,31.1-21.33,54.37,0,35.42,25.32,49.84,49.58,49.84a110.56,110.56,0,0,0,15.47-1.24c7.46-1,14.93-3.09,23.19-5.56.8-.21,1.33.62,1.33,2.68a1.68,1.68,0,0,1-.8,1.44,249.08,249.08,0,0,1-30.12,9.68,123.14,123.14,0,0,1-22.93,2.26c-42.12,0-77.84-15-77.84-56.42Z"/><path class="cls-6" d="M367.29,116a18.35,18.35,0,0,0-.56-3.88,18.6,18.6,0,0,0-1.39-3.79,24.12,24.12,0,0,0-4.62-6.37A37.83,37.83,0,0,0,348,93.87a59.93,59.93,0,0,0-14.07-3.8,82.16,82.16,0,0,0-28.54,1.2A142.44,142.44,0,0,0,279,99.73c-16.7,7-31.86,15.7-47.9,20.92a147.79,147.79,0,0,1-50.53,6.85,228.29,228.29,0,0,1-25.91-2.11c-8.62-1.18-17.23-2.66-25.79-4.51s-17.1-3.9-25.61-6.13-17.14-4.53-26-6.17c-4.41-.78-8.87-1.44-13.37-1.79a90.53,90.53,0,0,0-13.58,0,67.86,67.86,0,0,0-13.38,2.64,52.53,52.53,0,0,0-12.33,5.83A54.38,54.38,0,0,0,6.46,135,52.3,52.3,0,0,0,0,160.77h.9A51.08,51.08,0,0,1,8.15,136a52.14,52.14,0,0,1,18-18.16,48.71,48.71,0,0,1,11.75-5,62.79,62.79,0,0,1,12.64-2,85.39,85.39,0,0,1,12.88.5c4.28.5,8.54,1.3,12.78,2.23l2.52.59a53.18,53.18,0,0,0-10.06,1.78,47.66,47.66,0,0,0-14.07,6.44,35.18,35.18,0,0,0-13.15,42,35,35,0,0,0,3.69,7,30.66,30.66,0,0,0,5.32,5.94,28.89,28.89,0,0,0,6.75,4.33,24.41,24.41,0,0,0,7.86,2,20.47,20.47,0,0,0,8.15-1,22.87,22.87,0,0,0,15-17.71,19.11,19.11,0,0,0-.5-8.07,22.47,22.47,0,0,0-16.48-15.67,20.13,20.13,0,0,0-3.94-.42,16.87,16.87,0,0,0-3.94.49,12.51,12.51,0,0,0-6.79,4.09c-.21.27-.39.56-.59.84a9.75,9.75,0,0,0-.49.9,7.18,7.18,0,0,0-.62,2,8.53,8.53,0,0,0,.36,4,7.78,7.78,0,0,0,2.18,3.35A5.65,5.65,0,0,0,61.2,158l0-.91a5.4,5.4,0,0,1-4.58-4.3,7.47,7.47,0,0,1-.12-3.32,6.13,6.13,0,0,1,.55-1.52c.12-.23.29-.47.43-.7s.34-.45.52-.65a10.5,10.5,0,0,1,5.88-3.14,15.3,15.3,0,0,1,6.83.28,19.67,19.67,0,0,1,11,7.89,17.44,17.44,0,0,1,3,12.83c-1.54,8.82-10.51,16-19.28,15.08a20.17,20.17,0,0,1-6.41-1.78A24.84,24.84,0,0,1,53.42,174a26.89,26.89,0,0,1-4.52-5.12,30,30,0,0,1-3.15-6.09,33.57,33.57,0,0,1-1.69-6.7,34,34,0,0,1-.2-6.91,32.63,32.63,0,0,1,1.25-6.79,27.79,27.79,0,0,1,2.72-6.31A33.22,33.22,0,0,1,57.16,126a43.57,43.57,0,0,1,12.69-6.12,53.59,53.59,0,0,1,14.09-2.32,75.84,75.84,0,0,1,8.11.25c3.17.93,6.33,1.9,9.51,2.87,8.48,2.58,17,5,25.65,7.22s17.35,4.09,26.17,5.65a236.19,236.19,0,0,0,26.75,3.24c4.5.35,9,.38,13.56.48l6.81-.15c2.27,0,4.54-.28,6.81-.41,1.14-.08,2.28-.12,3.42-.23l3.4-.4c2.27-.28,4.56-.46,6.81-.9s4.53-.76,6.79-1.19l6.73-1.55c4.49-1.09,8.88-2.46,13.2-3.93s8.55-3.07,12.69-4.76c8.33-3.31,16.34-6.9,24.34-10.06a169.49,169.49,0,0,1,23.89-7.9,90.38,90.38,0,0,1,24.06-2.64,62.84,62.84,0,0,1,11.82,1.54A34.17,34.17,0,0,1,355,108.79a19.51,19.51,0,0,1,4.13,3.49,14.45,14.45,0,0,1,3.46,10.32,11.45,11.45,0,0,1-2,5.75l.62.66a12.15,12.15,0,0,0,4.66-5.51A17,17,0,0,0,367.29,116Z"/><g id="shape_text" data-name="shape text"><path class="cls-7" d="M148.47,167.36a1.15,1.15,0,0,1,.84.36,1.07,1.07,0,0,1,.35.66c0,.74-.85,1.93-2.57,3.56a22.13,22.13,0,0,1-6.71,4.18,22.48,22.48,0,0,1-8.78,1.74,25,25,0,0,1-13-3.26,21.66,21.66,0,0,1-8.44-9.06,26.49,26.49,0,0,1-2.93-12.06,24.82,24.82,0,0,1,2.87-11.73,20.79,20.79,0,0,1,8.17-8.53,24.1,24.1,0,0,1,12.28-3.07,27.79,27.79,0,0,1,8.25,1.17,19.55,19.55,0,0,1,6,2.82c1.45,1.11,2.18,2,2.18,2.52,0,.9,0,1.7-.06,2.43s-.07,1.16-.07,1.31a4.77,4.77,0,0,0,.23,1.16,5.27,5.27,0,0,1,.22,1.45c0,.7-.44,1.06-1.31,1.06a1.25,1.25,0,0,1-.83-.39,8.23,8.23,0,0,1-1.21-2.14,15.76,15.76,0,0,0-3.64-5.44q-3.42-3-9.55-3-7.89,0-12.28,5.74t-4.39,14.81q0,9.87,4.75,15.61A15.8,15.8,0,0,0,131.67,175a24.88,24.88,0,0,0,6.52-1.4,23.47,23.47,0,0,0,8.79-5.4A2.78,2.78,0,0,1,148.47,167.36Z"/><path class="cls-7" d="M171,164.55a1.42,1.42,0,0,0,1-.25,1.3,1.3,0,0,0,.25-.92,6.71,6.71,0,0,0-1.9-4.56q-1.89-2.12-5.72-2.12a8.41,8.41,0,0,0-5.48,2.52,9,9,0,0,0-2.82,7.13,8,8,0,0,0,3,6.07,9.71,9.71,0,0,0,6.67,2.69,12.8,12.8,0,0,0,6.05-1.75,4.78,4.78,0,0,1,1.63-.67,1.25,1.25,0,0,1,.91.32,1.1,1.1,0,0,1,.33.81q0,1.17-3.53,2.82a16.8,16.8,0,0,1-7.25,1.66,12.62,12.62,0,0,1-9.29-3.76,12.24,12.24,0,0,1-3.76-9,10.19,10.19,0,0,1,4.13-8.14,14.27,14.27,0,0,1,9.27-3.38q6.66,0,10,3.42a11.26,11.26,0,0,1,3.32,8.16c0,.69-.17,1.11-.51,1.27a5.23,5.23,0,0,1-1.88.23H160.76c-1.19,0-1.78-.44-1.78-1.32s.62-1.26,1.85-1.26Z"/><path class="cls-7" d="M199.66,160.48A3.26,3.26,0,0,0,200,159c0-.64-.38-1.05-1.13-1.23a5.33,5.33,0,0,1-1.52-.53,1.07,1.07,0,0,1-.38-.94q0-.84.42-1.08a2.69,2.69,0,0,1,1.31-.24,7.33,7.33,0,0,1,1.66.24,11,11,0,0,0,2.4.23,11.5,11.5,0,0,0,2.54-.27,9.1,9.1,0,0,1,1.78-.27c1.09,0,1.63.38,1.63,1.13q0,.84-.24,1a7.3,7.3,0,0,1-1.78.52,11.33,11.33,0,0,0-2.13.6,3.4,3.4,0,0,0-1.16,1.09,17.45,17.45,0,0,0-1.42,2.54l-6.86,14.54c0,.09-.11.25-.19.48-.37.94-.81,1.41-1.33,1.41s-.9-.47-1.35-1.41l-7.82-16a5.68,5.68,0,0,0-1.83-2.15,4,4,0,0,0-2.22-.84,3.06,3.06,0,0,1-1.72-.41,1.16,1.16,0,0,1-.61-1c0-.89.54-1.33,1.63-1.33a17.18,17.18,0,0,1,3,.27,13.32,13.32,0,0,0,2.33.28,18.08,18.08,0,0,0,2.74-.28,18.7,18.7,0,0,1,2.57-.27,3.33,3.33,0,0,1,1.65.31,1.11,1.11,0,0,1,.49,1,1,1,0,0,1-.32.74,3.11,3.11,0,0,1-1.45.58,3.56,3.56,0,0,0-1.4.51.8.8,0,0,0-.27.61,6.64,6.64,0,0,0,.63,1.69l4.36,9.16c.24.46.44.7.61.7s.48-.31.76-.93Z"/><path class="cls-7" d="M218.93,172.05a2.63,2.63,0,0,0,.58,2,3,3,0,0,0,1.53.62,3.68,3.68,0,0,1,1.35.4,1.19,1.19,0,0,1,.4,1.07c0,.71-.62,1.07-1.85,1.07a23.94,23.94,0,0,1-2.4-.19,21.51,21.51,0,0,0-2.37-.19,14.14,14.14,0,0,0-2.24.25,14.29,14.29,0,0,1-2.2.26,2,2,0,0,1-1.27-.42,1.35,1.35,0,0,1-.53-1.1,1.05,1.05,0,0,1,.29-.73,2.94,2.94,0,0,1,1.47-.5,2.53,2.53,0,0,0,1.64-.76,5.15,5.15,0,0,0,.46-2.77V160.33a2.23,2.23,0,0,0-.57-1.81,4,4,0,0,0-1.69-.67,2.41,2.41,0,0,1-1.39-.58,1.41,1.41,0,0,1-.27-.87,1.14,1.14,0,0,1,.46-1,1.72,1.72,0,0,1,1.11-.38,7.25,7.25,0,0,1,1.55.24,7.19,7.19,0,0,0,1.49.24,13,13,0,0,0,1.67-.17,11.51,11.51,0,0,1,1.66-.18c.79,0,1.19.66,1.19,2,0,.21,0,.49,0,.84s0,.6,0,.72Zm-2.6-27.7a3.64,3.64,0,0,1,3.59,3.59,2.82,2.82,0,0,1-1,2.21,3.68,3.68,0,0,1-2.48.9,3.41,3.41,0,0,1-2.46-1,3.22,3.22,0,0,1-1-2.39,3.12,3.12,0,0,1,1-2.32A3.37,3.37,0,0,1,216.33,144.35Z"/><path class="cls-7" d="M248.86,172.78c.59,0,.89.5.89,1.49,0,.64-1.07,1.46-3.22,2.46a15.7,15.7,0,0,1-6.76,1.51,14.89,14.89,0,0,1-10-3.53,11.18,11.18,0,0,1-4.15-8.88,11,11,0,0,1,3.93-8.36,13.35,13.35,0,0,1,9.38-3.61,21.82,21.82,0,0,1,6.67,1.21c2.49.8,3.73,1.54,3.73,2.19a17.58,17.58,0,0,0,.19,2.9c.13.74.19,1.16.19,1.27,0,.95-.44,1.43-1.32,1.43q-1,0-1.56-1.92a5.31,5.31,0,0,0-2.35-3,8,8,0,0,0-4.4-1.14A9.2,9.2,0,0,0,234,159.2a8.59,8.59,0,0,0-2.83,6.88,8.31,8.31,0,0,0,3.17,6.71,10.23,10.23,0,0,0,6.58,2.61,11.32,11.32,0,0,0,2.59-.32,10.69,10.69,0,0,0,3-1.31A5.68,5.68,0,0,1,248.86,172.78Z"/><path class="cls-7" d="M261.91,172.62a2.42,2.42,0,0,0,.48,1.52,3.2,3.2,0,0,0,2.09.84,3.82,3.82,0,0,1,2,.61,1.43,1.43,0,0,1,.35,1c0,.7-.61,1-1.82,1a28.17,28.17,0,0,1-2.85-.21,27.82,27.82,0,0,0-2.84-.21,23.49,23.49,0,0,0-2.62.21,23.81,23.81,0,0,1-2.63.21c-1.49,0-2.23-.39-2.23-1.16a1.24,1.24,0,0,1,.31-.89,3.92,3.92,0,0,1,2-.53,2.65,2.65,0,0,0,2.2-1.15,4.57,4.57,0,0,0,.53-2.23V137.23a2.12,2.12,0,0,0-.55-1.43,5,5,0,0,0-2.13-1.18,6.76,6.76,0,0,1-1.9-.83.87.87,0,0,1-.3-.62c0-.75.62-1.13,1.88-1.13.37,0,.92,0,1.67.12a15.11,15.11,0,0,0,1.66.13,6.16,6.16,0,0,0,1.62-.29,6.44,6.44,0,0,1,1.55-.28,1.61,1.61,0,0,1,1.14.41,3.32,3.32,0,0,1,.43,2.14Zm16-.48a3.9,3.9,0,0,0,.49,2,2.65,2.65,0,0,0,2.07,1.05,3.67,3.67,0,0,1,1.89.56,1.32,1.32,0,0,1,.3.88c0,.49-.15.8-.46.9a6.55,6.55,0,0,1-1.84.17c-.56,0-1.4-.06-2.53-.16s-2-.16-2.49-.16a26.12,26.12,0,0,0-2.66.19,25.78,25.78,0,0,1-2.65.19c-1.37,0-2-.46-2-1.39a1.05,1.05,0,0,1,.32-.79,4,4,0,0,1,1.93-.48,2.79,2.79,0,0,0,2.14-1,3.35,3.35,0,0,0,.53-1.89c0-1.1,0-2.75-.07-4.92s-.06-3.81-.06-4.92a3,3,0,0,0-.87-2.32,3.48,3.48,0,0,0-2.46-.82,6.26,6.26,0,0,0-3.61,1.53,3.84,3.84,0,0,1-1.91,1,1,1,0,0,1-.66-.35,1.06,1.06,0,0,1-.35-.71q0-1.65,3.33-3.61a11.43,11.43,0,0,1,5.33-2,6.79,6.79,0,0,1,3.72,1.14,5.68,5.68,0,0,1,2.39,2.84,22.68,22.68,0,0,1,.32,5.27c0,1.27,0,2.81-.05,4.61S277.9,171.82,277.9,172.14Z"/><path class="cls-7" d="M304.19,164.55a1.42,1.42,0,0,0,1-.25,1.3,1.3,0,0,0,.25-.92,6.71,6.71,0,0,0-1.9-4.56q-1.89-2.12-5.72-2.12a8.41,8.41,0,0,0-5.48,2.52,9,9,0,0,0-2.82,7.13,8,8,0,0,0,3,6.07,9.71,9.71,0,0,0,6.67,2.69,12.8,12.8,0,0,0,6-1.75,4.78,4.78,0,0,1,1.63-.67,1.25,1.25,0,0,1,.91.32,1.1,1.1,0,0,1,.33.81q0,1.17-3.53,2.82a16.81,16.81,0,0,1-7.26,1.66,12.6,12.6,0,0,1-9.28-3.76,12.25,12.25,0,0,1-3.77-9,10.2,10.2,0,0,1,4.14-8.14,14.27,14.27,0,0,1,9.27-3.38q6.66,0,10,3.42a11.3,11.3,0,0,1,3.32,8.16c0,.69-.17,1.11-.51,1.27a5.27,5.27,0,0,1-1.88.23H293.94c-1.19,0-1.78-.44-1.78-1.32s.61-1.26,1.85-1.26Z"/></g></g></g></svg>