<svg id="a5016b28-7fa2-47f6-8c6d-6c76bf35cd2a" data-name="crispy&apos;s Logo" xmlns="http://www.w3.org/2000/svg" viewBox="0 0 335.1 198.59"><defs><style>.aa16bdea-3092-4d32-99cd-0cecf8a96b71{fill:#f15a29;}</style></defs><title>crispys_logo_orange</title><path class="aa16bdea-3092-4d32-99cd-0cecf8a96b71" d="M525.55,290.68c.35-.41.14-3.2-1.5-7.62A58.43,58.43,0,0,0,514,266.31,106,106,0,0,0,493,247.83a166.41,166.41,0,0,0-26.89-14.67,177,177,0,0,1,42.31,18.14,103,103,0,0,1,27,23A93,93,0,0,1,547.77,295c.31.66.6,1.29.89,1.88l.43.86.36.81a21.51,21.51,0,0,0,1.39,2.63c.91,1.41,1.78,2.14,2.63,2-.14-1.27-.29-2.53-.43-3.8l-.23-1.89c-.12-.62-.25-1.24-.38-1.86-.26-1.24-.53-2.48-.79-3.72s-.72-2.43-1.09-3.63l-.56-1.81c-.21-.59-.46-1.17-.69-1.75q-.69-1.74-1.41-3.48c-.53-1.13-1.1-2.23-1.65-3.34l-.84-1.66c-.29-.55-.63-1.06-.94-1.59a86.43,86.43,0,0,0-18.65-21.92,130.21,130.21,0,0,0-23.21-15.66,177.54,177.54,0,0,0-25.42-11,249.42,249.42,0,0,0-53.88-11.9c-9.14-1-18.33-1.59-27.51-1.76s-18.34,0-27.44.69a288.81,288.81,0,0,0-53.44,8.64,213.91,213.91,0,0,0-48.7,19,138.1,138.1,0,0,0-20.77,13.88,93.51,93.51,0,0,0-16.43,17,58.9,58.9,0,0,0-9.41,19.69,45.58,45.58,0,0,0-.18,20.22,53.47,53.47,0,0,0,8.22,18.1,78.67,78.67,0,0,0,13.68,14.74c10.25,8.72,22.06,15.11,33.62,20.19a209.46,209.46,0,0,0,34.21,11.14A258,258,0,0,0,340,381l3.51.41,3.43.29c2.25.19,4.44.41,6.59.51l6.22.36,5.83.18c1.88.08,3.7,0,5.44.07s3.42,0,5,0c3.21-.09,6.14-.11,8.76-.23l7-.34,5.09-.39c1.38-.11,2.44-.18,3.15-.25l1.12-.12c3.24-.35,6.47-.64,9.67-1.12,1.6-.22,3.21-.41,4.8-.65l4.77-.78,2.38-.39,2.37-.46,4.71-.91,4.68-1,2.33-.52,2.31-.59,4.62-1.17,4.56-1.31,2.28-.65,2.24-.73,4.49-1.45c5.93-2.07,11.75-4.32,17.39-6.88A167.24,167.24,0,0,0,491,354.27a120.72,120.72,0,0,0,14.55-10.43c9-7.54,16.28-16.59,19.93-26.41.18-.57.54-1.71,1-3.1,0-.17.11-.35.16-.53l.12-.56.25-1.16c.09-.4.18-.8.26-1.2l.14-.61.06-.61c.09-.81.18-1.6.27-2.34l.06-.54V305.3a8.92,8.92,0,0,0-.13-2.12h0l-.12,2.34,0,1.17-.17,1.17-.31,2.33-.54,2.31-.25,1.15c-.12.39-.26.77-.38,1.15l-.73,2.28c-.3.76-.63,1.5-.94,2.26l-.47,1.13c-.15.38-.37.73-.55,1.11a63.84,63.84,0,0,1-12.27,16.65A105.23,105.23,0,0,1,493.4,352,149.62,149.62,0,0,1,473,362.83,195.63,195.63,0,0,1,450.76,371c-7.6,2.27-15.37,4.15-23.23,5.68s-15.82,2.65-23.83,3.45c-4,.45-8,.67-12,1s-8.06.39-12.09.4-8.07,0-12.1-.06-8.07-.28-12.08-.61-8-.69-12-1.09l-6-.76c-2-.23-4-.6-5.95-.89-7.92-1.29-15.77-2.87-23.48-4.91a213.3,213.3,0,0,1-22.59-7.3A165.89,165.89,0,0,1,264.21,356a118.24,118.24,0,0,1-18.64-12.79,76.84,76.84,0,0,1-14.36-15.74l-1.32-2.16-.67-1.08c-.21-.37-.38-.74-.57-1.11l-1.15-2.21c-.35-.74-.63-1.5-1-2.25a46.54,46.54,0,0,1-1.61-4.55c-.25-.76-.36-1.54-.56-2.31a16.73,16.73,0,0,1-.47-2.32l-.32-2.32a7.68,7.68,0,0,1-.09-1.17l-.05-1.17a38.61,38.61,0,0,1,.06-4.69,7.74,7.74,0,0,1,.12-1.17l.16-1.16a18.39,18.39,0,0,1,.38-2.32l.53-2.32c.05-.19.08-.38.14-.57L225,292l.37-1.15.37-1.14.18-.57.24-.57.94-2.25a22.77,22.77,0,0,1,1.09-2.22c.4-.73.72-1.49,1.16-2.21l1.34-2.16c.22-.36.42-.73.67-1.08l.75-1,1.5-2.11c.54-.69,1.12-1.36,1.67-2a87.23,87.23,0,0,1,16-14.82,136.7,136.7,0,0,1,19.63-11.8,202.26,202.26,0,0,1,44.65-15.48c7.78-1.82,15.7-3.13,23.67-4.19l3-.38c1-.13,2-.25,3-.34l6-.59c4-.27,8-.62,12.06-.74s8.07-.21,12.1-.28,8.07,0,12.1.27,8,.46,12.06.73,8,.75,12,1.3a239,239,0,0,1,46.62,10.63,176,176,0,0,1,21.72,9,137.11,137.11,0,0,1,19.66,11.78,87.37,87.37,0,0,1,16,14.78,53.07,53.07,0,0,1,10,17.39Z" transform="translate(-218.37 -212.32)"/><path class="aa16bdea-3092-4d32-99cd-0cecf8a96b71" d="M287.51,328.7H265.7a24.11,24.11,0,0,1-6.56-.92q-6.28-1.9-9.95-8.74a30.17,30.17,0,0,1-3.31-14.44,32,32,0,0,1,3-14.1,17.7,17.7,0,0,1,9.24-9.23,25,25,0,0,1,9.53-1.9h19.76v9.45H266.83q-5,0-7.27,5.44a29.3,29.3,0,0,0-1.76,11.08,19.74,19.74,0,0,0,2.26,9.81q2.61,4.73,7.34,4.72h20.11Z" transform="translate(-218.37 -212.32)"/><path class="aa16bdea-3092-4d32-99cd-0cecf8a96b71" d="M314,300H303.11V328.7h-9.74V292.14h9.74v5.08a10,10,0,0,1,1.91-3.1,7.41,7.41,0,0,1,3-1.84,17,17,0,0,1,1.81-.49,9.1,9.1,0,0,1,1.95-.21,8.72,8.72,0,0,1,2.27.28Z" transform="translate(-218.37 -212.32)"/><path class="aa16bdea-3092-4d32-99cd-0cecf8a96b71" d="M328.93,288.05H319.2v-8.68h9.73Zm0,40.65H319.2V292.14h9.73Z" transform="translate(-218.37 -212.32)"/><path class="aa16bdea-3092-4d32-99cd-0cecf8a96b71" d="M370.15,317.55a11.47,11.47,0,0,1-3,8,9.8,9.8,0,0,1-7.59,3.32H335.35V322.2H355.2a5.8,5.8,0,0,0,3.55-1.06,3.52,3.52,0,0,0,1.44-3q0-4.59-6.19-4.59H343.87q-3.24,0-6.27-3.1a9.51,9.51,0,0,1-3-6.71,13.57,13.57,0,0,1,2.26-8.18,9,9,0,0,1,7.69-3.53h23.29v6.92H347.07a2.55,2.55,0,0,0-2.08,1.16,4.28,4.28,0,0,0-.89,2.65,4,4,0,0,0,4,3.95H359a10.86,10.86,0,0,1,8.15,3.07A10.68,10.68,0,0,1,370.15,317.55Z" transform="translate(-218.37 -212.32)"/><path class="aa16bdea-3092-4d32-99cd-0cecf8a96b71" d="M412.84,309.57q0,8.76-4.54,13.94a15.1,15.1,0,0,1-11.93,5.19H385.74V342h-9.95V292.14h19.62q8.32,0,13,4.94Q412.85,301.81,412.84,309.57Zm-9.95.57a10.19,10.19,0,0,0-2.93-7.52,9.92,9.92,0,0,0-7.3-2.93h-6.92V321h7.62a8.74,8.74,0,0,0,6.88-3A11.42,11.42,0,0,0,402.89,310.14Z" transform="translate(-218.37 -212.32)"/><path class="aa16bdea-3092-4d32-99cd-0cecf8a96b71" d="M453.49,292.14l-.07,38.11a9.56,9.56,0,0,1-1,4.34,12.06,12.06,0,0,1-2.61,3.42,14,14,0,0,1-5.08,2.89,22.23,22.23,0,0,1-6.29.78H419.26v-7.62h20a4.11,4.11,0,0,0,2.55-.93,3.77,3.77,0,0,0,1.62-3V328.7H432.14a18,18,0,0,1-5.52-.74,11.39,11.39,0,0,1-4.39-2.86,12.18,12.18,0,0,1-3.75-9.08V292.14h10.31l-.07,23.37a9.27,9.27,0,0,0,.17,2.11,3.63,3.63,0,0,0,1,1.55,4.27,4.27,0,0,0,1.89,1.16,9.07,9.07,0,0,0,2.64.32h9V292.14Z" transform="translate(-218.37 -212.32)"/><path class="aa16bdea-3092-4d32-99cd-0cecf8a96b71" d="M473.46,279.37l-7,8.4h-7.34l3.11-8.4Z" transform="translate(-218.37 -212.32)"/><path class="aa16bdea-3092-4d32-99cd-0cecf8a96b71" d="M512.41,317.55a11.47,11.47,0,0,1-3,8,9.79,9.79,0,0,1-7.58,3.32H477.62V322.2h19.84a5.83,5.83,0,0,0,3.56-1.06,3.52,3.52,0,0,0,1.44-3q0-4.59-6.19-4.59H486.13c-2.16,0-4.24-1-6.26-3.1a9.49,9.49,0,0,1-3-6.71,13.64,13.64,0,0,1,2.26-8.18,9,9,0,0,1,7.69-3.53h23.29v6.92H489.33a2.55,2.55,0,0,0-2.08,1.16,4.27,4.27,0,0,0-.88,2.65,4,4,0,0,0,3.95,3.95h10.94a10.86,10.86,0,0,1,8.15,3.07A10.68,10.68,0,0,1,512.41,317.55Z" transform="translate(-218.37 -212.32)"/><path class="aa16bdea-3092-4d32-99cd-0cecf8a96b71" d="M255.84,390.59l-7.08,9.31v6.82H245V399.9l-7-9.31h4.67l4.19,6.4,4.26-6.4Z" transform="translate(-218.37 -212.32)"/><path class="aa16bdea-3092-4d32-99cd-0cecf8a96b71" d="M269.58,400.68a5.87,5.87,0,0,1-2,4.77,7.43,7.43,0,0,1-4.94,1.52,7.6,7.6,0,0,1-4.86-1.38,6,6,0,0,1-2-5,5.21,5.21,0,0,1,2.16-4.42,7.71,7.71,0,0,1,4.77-1.46,7.54,7.54,0,0,1,5,1.56A5.36,5.36,0,0,1,269.58,400.68Zm-3.56,0a3.5,3.5,0,0,0-.91-2.44,3.23,3.23,0,0,0-2.48-1,3.09,3.09,0,0,0-2.36,1,3.59,3.59,0,0,0-.93,2.53,4,4,0,0,0,1,2.8,3.14,3.14,0,0,0,2.44,1,3,3,0,0,0,2.53-1.08A4.68,4.68,0,0,0,266,400.66Z" transform="translate(-218.37 -212.32)"/><path class="aa16bdea-3092-4d32-99cd-0cecf8a96b71" d="M282.54,406.68h-6.12a11.52,11.52,0,0,1-2.37-.17,3.12,3.12,0,0,1-1.84-1.19,4,4,0,0,1-.78-2.42v-8.15h3.19v7.9a1.25,1.25,0,0,0,.51,1,1.72,1.72,0,0,0,1.08.41h3.13v-9.3h3.2Z" transform="translate(-218.37 -212.32)"/><path class="aa16bdea-3092-4d32-99cd-0cecf8a96b71" d="M291.59,397.33H288v9.35h-3.18V394.75H288v1.66a3.4,3.4,0,0,1,.62-1,2.47,2.47,0,0,1,1-.6,4.59,4.59,0,0,1,.59-.16,2.73,2.73,0,0,1,.64-.07,3,3,0,0,1,.74.09Z" transform="translate(-218.37 -212.32)"/><path class="aa16bdea-3092-4d32-99cd-0cecf8a96b71" d="M321.12,394.75l-3.94,11.93h-4.1l-2.25-7.9-2.35,7.9h-4.05l-4.08-11.93h3.71l2.44,8.17,2.44-8.17h3.77L315,403.2l2.37-8.45Z" transform="translate(-218.37 -212.32)"/><path class="aa16bdea-3092-4d32-99cd-0cecf8a96b71" d="M333.27,406.68h-8.61a3.44,3.44,0,0,1-2.47-1,3.24,3.24,0,0,1-1-2.47,3.68,3.68,0,0,1,.93-2.58,3,3,0,0,1,2.33-1H330V399a1.21,1.21,0,0,0-.11-.52,3.53,3.53,0,0,0-.33-.52,1.5,1.5,0,0,0-.67-.47,3.43,3.43,0,0,0-1-.1H322v-2.63h6.1a8.13,8.13,0,0,1,2.5.29,3.83,3.83,0,0,1,1.43.86,3.7,3.7,0,0,1,1,1.66,8.49,8.49,0,0,1,.26,2.29ZM330,404.24v-2.33h-4.05a1.49,1.49,0,0,0-1,.33,1.08,1.08,0,0,0-.41.88,1,1,0,0,0,.4.8,1.39,1.39,0,0,0,.89.32Z" transform="translate(-218.37 -212.32)"/><path class="aa16bdea-3092-4d32-99cd-0cecf8a96b71" d="M347,394.75l0,12.43a3.15,3.15,0,0,1-.32,1.42,4,4,0,0,1-.85,1.11,4.61,4.61,0,0,1-1.66,1,7.23,7.23,0,0,1-2.05.25h-6.26v-2.49h6.53a1.37,1.37,0,0,0,.84-.3,1.23,1.23,0,0,0,.53-1v-.46H340a5.63,5.63,0,0,1-1.8-.25,3.66,3.66,0,0,1-1.43-.93,4,4,0,0,1-1.22-3v-7.79h3.36l0,7.63a3.7,3.7,0,0,0,0,.68,1.16,1.16,0,0,0,.33.51,1.46,1.46,0,0,0,.61.38,3.08,3.08,0,0,0,.86.1h3v-9.3Z" transform="translate(-218.37 -212.32)"/><path class="aa16bdea-3092-4d32-99cd-0cecf8a96b71" d="M352.72,403.78l-.05,2.16a3.22,3.22,0,0,1-.6,1.83,5.42,5.42,0,0,1-.52.68,2.77,2.77,0,0,1-.63.5v-2.3h-1.31v-2.87Z" transform="translate(-218.37 -212.32)"/><path class="aa16bdea-3092-4d32-99cd-0cecf8a96b71" d="M375.57,394.75l0,12.43a3,3,0,0,1-.33,1.42,3.66,3.66,0,0,1-.85,1.11,4.58,4.58,0,0,1-1.65,1,7.28,7.28,0,0,1-2.05.25h-6.26v-2.49h6.53a1.35,1.35,0,0,0,.83-.3,1.23,1.23,0,0,0,.53-1v-.46h-3.69a5.54,5.54,0,0,1-1.8-.25,3.66,3.66,0,0,1-1.43-.93,4,4,0,0,1-1.23-3v-7.79h3.36l0,7.63a2.86,2.86,0,0,0,.06.68,1.22,1.22,0,0,0,.32.51,1.49,1.49,0,0,0,.62.38,3,3,0,0,0,.86.1h2.95v-9.3Z" transform="translate(-218.37 -212.32)"/><path class="aa16bdea-3092-4d32-99cd-0cecf8a96b71" d="M391.27,400.68a5.87,5.87,0,0,1-2,4.77,7.47,7.47,0,0,1-5,1.52,7.6,7.6,0,0,1-4.86-1.38,6,6,0,0,1-2-5,5.21,5.21,0,0,1,2.16-4.42,7.71,7.71,0,0,1,4.77-1.46,7.54,7.54,0,0,1,5,1.56A5.37,5.37,0,0,1,391.27,400.68Zm-3.57,0a3.45,3.45,0,0,0-.91-2.44,3.23,3.23,0,0,0-2.48-1,3.05,3.05,0,0,0-2.35,1,3.56,3.56,0,0,0-.94,2.53,4,4,0,0,0,1,2.8,3.14,3.14,0,0,0,2.44,1,3,3,0,0,0,2.53-1.08A4.62,4.62,0,0,0,387.7,400.66Z" transform="translate(-218.37 -212.32)"/><path class="aa16bdea-3092-4d32-99cd-0cecf8a96b71" d="M404.22,406.68H398.1a11.52,11.52,0,0,1-2.37-.17,3.12,3.12,0,0,1-1.84-1.19,4,4,0,0,1-.78-2.42v-8.15h3.2v7.9a1.24,1.24,0,0,0,.5,1,1.72,1.72,0,0,0,1.08.41H401v-9.3h3.2Z" transform="translate(-218.37 -212.32)"/><path class="aa16bdea-3092-4d32-99cd-0cecf8a96b71" d="M413.27,397.33H409.7v9.35h-3.18V394.75h3.18v1.66a3.23,3.23,0,0,1,.63-1,2.36,2.36,0,0,1,1-.6,4.59,4.59,0,0,1,.59-.16,2.73,2.73,0,0,1,.64-.07,2.94,2.94,0,0,1,.74.09Z" transform="translate(-218.37 -212.32)"/><path class="aa16bdea-3092-4d32-99cd-0cecf8a96b71" d="M441.12,406.68H438v-7.47a2,2,0,0,0-.09-.68,1.63,1.63,0,0,0-.37-.54,1.83,1.83,0,0,0-.55-.42,1.64,1.64,0,0,0-.65-.12h-2.28v9.23h-3.15v-9.3h-3.68v9.3H424V394.75h12.78a6.66,6.66,0,0,1,1.88.22,3.32,3.32,0,0,1,1.36.93,5.17,5.17,0,0,1,.82,1.13,2.55,2.55,0,0,1,.29,1.19Z" transform="translate(-218.37 -212.32)"/><path class="aa16bdea-3092-4d32-99cd-0cecf8a96b71" d="M453.68,406.75h-5.61a4.55,4.55,0,0,1-3.56-1.77,6.07,6.07,0,0,1-1.51-4.06,6.27,6.27,0,0,1,1.65-4.34,4.87,4.87,0,0,1,3.67-1.83h5.34v2.47h-3.91a5.73,5.73,0,0,0-1.26.12,2.36,2.36,0,0,0-.95.5,2.32,2.32,0,0,0-.81,1.86h6.91v2.49h-6.91a2.78,2.78,0,0,0,.13.93,1.92,1.92,0,0,0,.52.76,2,2,0,0,0,.93.51,6.36,6.36,0,0,0,1.33.12h4Z" transform="translate(-218.37 -212.32)"/><path class="aa16bdea-3092-4d32-99cd-0cecf8a96b71" d="M467.58,406.68H459a3.48,3.48,0,0,1-2.48-1,3.27,3.27,0,0,1-1-2.47,3.68,3.68,0,0,1,.93-2.58,3,3,0,0,1,2.33-1h5.55V399a1.21,1.21,0,0,0-.1-.52,3.53,3.53,0,0,0-.33-.52,1.56,1.56,0,0,0-.67-.47,3.47,3.47,0,0,0-1-.1h-6v-2.63h6.1a8.2,8.2,0,0,1,2.51.29,3.91,3.91,0,0,1,1.43.86,3.79,3.79,0,0,1,1,1.66,8.54,8.54,0,0,1,.25,2.29Zm-3.29-2.44v-2.33h-4.05a1.51,1.51,0,0,0-1,.33,1.1,1.1,0,0,0-.4.88,1,1,0,0,0,.39.8,1.4,1.4,0,0,0,.9.32Z" transform="translate(-218.37 -212.32)"/><path class="aa16bdea-3092-4d32-99cd-0cecf8a96b71" d="M473.13,406.68h-3.25V390.59h3.25Z" transform="translate(-218.37 -212.32)"/><path class="aa16bdea-3092-4d32-99cd-0cecf8a96b71" d="M478.77,403.78l0,2.16a3.22,3.22,0,0,1-.6,1.83,5.45,5.45,0,0,1-.51.68,2.85,2.85,0,0,1-.64.5v-2.3h-1.31v-2.87Z" transform="translate(-218.37 -212.32)"/><path class="aa16bdea-3092-4d32-99cd-0cecf8a96b71" d="M498.7,393.05h-1.43a7.06,7.06,0,0,0-1,.06.78.78,0,0,0-.6.31,1.52,1.52,0,0,0-.22.47,2.26,2.26,0,0,0-.06.57v.62h3.22v2.39h-3.22v9.21h-3.36v-9.21h-2.3v-2.39h2.3v-1.43a3,3,0,0,1,.78-2.07,2.73,2.73,0,0,1,1-.77,3.79,3.79,0,0,1,1.39-.22h3.41Z" transform="translate(-218.37 -212.32)"/><path class="aa16bdea-3092-4d32-99cd-0cecf8a96b71" d="M511.93,406.68h-8.6a3.48,3.48,0,0,1-2.48-1,3.27,3.27,0,0,1-1-2.47,3.68,3.68,0,0,1,.93-2.58,3,3,0,0,1,2.33-1h5.55V399a1.21,1.21,0,0,0-.1-.52,3.53,3.53,0,0,0-.33-.52,1.56,1.56,0,0,0-.67-.47,3.47,3.47,0,0,0-1-.1h-5.95v-2.63h6.1a8.2,8.2,0,0,1,2.51.29,3.78,3.78,0,0,1,2.44,2.52,8.54,8.54,0,0,1,.25,2.29Zm-3.29-2.44v-2.33h-4.05a1.51,1.51,0,0,0-1,.33,1.1,1.1,0,0,0-.4.88,1,1,0,0,0,.39.8,1.4,1.4,0,0,0,.9.32Z" transform="translate(-218.37 -212.32)"/><path class="aa16bdea-3092-4d32-99cd-0cecf8a96b71" d="M525.33,403a3.75,3.75,0,0,1-1,2.6,3.19,3.19,0,0,1-2.47,1.08H514v-2.16h6.48a1.89,1.89,0,0,0,1.15-.35,1.14,1.14,0,0,0,.47-1c0-1-.67-1.49-2-1.49h-3.3a2.83,2.83,0,0,1-2-1,3.07,3.07,0,0,1-1-2.18,4.36,4.36,0,0,1,.74-2.67,2.9,2.9,0,0,1,2.5-1.15h7.6V397H517.8a.86.86,0,0,0-.68.38,1.41,1.41,0,0,0-.28.87,1.3,1.3,0,0,0,1.29,1.29h3.56a3.54,3.54,0,0,1,2.66,1A3.48,3.48,0,0,1,525.33,403Z" transform="translate(-218.37 -212.32)"/><path class="aa16bdea-3092-4d32-99cd-0cecf8a96b71" d="M534.26,397.24h-3.11v5.41a1.61,1.61,0,0,0,.51,1.22,2.29,2.29,0,0,0,1.52.48h.94v2.33h-3a3.09,3.09,0,0,1-2.28-1,2.7,2.7,0,0,1-.71-1.27,7.08,7.08,0,0,1-.16-1.63v-5.57h-2v-2.49h2v-4.16h3.15v4.16h3.11Z" transform="translate(-218.37 -212.32)"/></svg>