<svg xmlns="http://www.w3.org/2000/svg" viewBox="0 0 335.1 170.49"><defs><style>.f54933d5-f679-4ce5-bf9e-eb8c0f8d1f88{fill:#f1f2f2;}</style></defs><title>crispys_logo</title><g id="b7b4b6f8-f49a-4a15-9f07-91a8ca0a0017" data-name="Layer 2"><g id="f4699fd6-2001-497e-bbb3-2a578b174057" data-name="crispy&apos;s Logo"><path class="f54933d5-f679-4ce5-bf9e-eb8c0f8d1f88" d="M307.18,78.36c.35-.42.14-3.21-1.5-7.63A58.7,58.7,0,0,0,295.58,54a106.27,106.27,0,0,0-20.91-18.47,166,166,0,0,0-26.89-14.67A177.37,177.37,0,0,1,290.09,39a103.21,103.21,0,0,1,27,23A93,93,0,0,1,329.4,82.63c.31.67.6,1.3.89,1.89l.43.86.36.81a21.51,21.51,0,0,0,1.39,2.63c.91,1.41,1.78,2.13,2.63,2-.14-1.26-.29-2.52-.43-3.79l-.23-1.89c-.11-.62-.25-1.25-.38-1.87-.26-1.23-.53-2.47-.79-3.72s-.72-2.42-1.09-3.62l-.56-1.81c-.21-.59-.46-1.17-.68-1.75l-1.41-3.48c-.53-1.13-1.11-2.23-1.66-3.34L327,63.92c-.29-.55-.63-1.06-.94-1.6a86.21,86.21,0,0,0-18.65-21.91,129.68,129.68,0,0,0-23.21-15.66,177.6,177.6,0,0,0-25.42-11A250,250,0,0,0,204.93,1.81C195.79.76,186.6.21,177.42.05S159.08.07,150,.74A289.4,289.4,0,0,0,96.55,9.37a214.27,214.27,0,0,0-48.71,19A139.63,139.63,0,0,0,27.07,42.2a93.88,93.88,0,0,0-16.43,17A58.85,58.85,0,0,0,1.23,78.92a45.63,45.63,0,0,0-.18,20.23,53.56,53.56,0,0,0,8.22,18.1A78.67,78.67,0,0,0,23,132C33.2,140.71,45,147.1,56.57,152.17a209.54,209.54,0,0,0,34.21,11.15,260,260,0,0,0,30.82,5.34l3.51.4,3.43.3c2.25.19,4.45.41,6.59.51l6.22.35,5.83.19c1.88.08,3.7.05,5.44.07s3.43,0,5,0c3.21-.09,6.14-.11,8.77-.23l7-.35,5.09-.39c1.38-.11,2.44-.17,3.15-.25l1.12-.11c3.24-.35,6.47-.65,9.67-1.12,1.61-.22,3.21-.41,4.81-.66l4.76-.77,2.38-.4,2.37-.45,4.71-.91,4.68-1,2.33-.52,2.31-.59,4.62-1.17,4.56-1.31,2.28-.66,2.24-.72,4.49-1.45c5.93-2.08,11.75-4.32,17.39-6.89A165,165,0,0,0,272.61,142a121.63,121.63,0,0,0,14.56-10.43c9-7.54,16.27-16.59,19.92-26.41.18-.57.54-1.71,1-3.1.05-.17.11-.35.16-.53l.12-.56.25-1.17q.13-.59.27-1.2L309,98l.06-.61c.09-.81.18-1.6.27-2.34l.06-.55V93a9.05,9.05,0,0,0-.13-2.12h0l-.12,2.34,0,1.17-.17,1.16-.31,2.33-.54,2.31-.25,1.16c-.12.38-.25.76-.38,1.14l-.73,2.29c-.3.76-.63,1.5-.94,2.25l-.47,1.13c-.15.38-.37.74-.55,1.11A63.67,63.67,0,0,1,292.5,125.9,105.28,105.28,0,0,1,275,139.68a150.74,150.74,0,0,1-20.45,10.83,196.18,196.18,0,0,1-22.18,8.15c-7.61,2.27-15.38,4.15-23.24,5.67s-15.82,2.66-23.83,3.46c-4,.44-8,.67-12,1s-8,.39-12.09.39-8.07,0-12.1,0-8.07-.28-12.08-.62-8-.68-12-1.08l-6-.76c-2-.24-4-.6-6-.89-7.92-1.29-15.77-2.88-23.47-4.91a215,215,0,0,1-22.6-7.3,165.94,165.94,0,0,1-21.15-9.88A118.19,118.19,0,0,1,27.2,130.87a77.36,77.36,0,0,1-14.36-15.74L11.52,113l-.67-1.08c-.2-.37-.38-.74-.57-1.11l-1.15-2.21c-.35-.74-.63-1.51-1-2.25a44.14,44.14,0,0,1-1.62-4.55c-.25-.76-.36-1.55-.56-2.31a17,17,0,0,1-.47-2.32l-.32-2.33a7.59,7.59,0,0,1-.09-1.17l0-1.17a38.47,38.47,0,0,1,.06-4.68,7.74,7.74,0,0,1,.12-1.17l.17-1.16a16.85,16.85,0,0,1,.37-2.33l.53-2.31c0-.19.08-.39.14-.58l.19-.57L7,78.53l.37-1.14.18-.58.24-.56L8.75,74c.28-.77.73-1.48,1.09-2.23s.72-1.48,1.17-2.2l1.33-2.16c.22-.36.42-.73.67-1.09l.75-1,1.51-2.11c.53-.69,1.11-1.36,1.66-2a87.23,87.23,0,0,1,16-14.82,134.9,134.9,0,0,1,19.63-11.8A202.28,202.28,0,0,1,97.19,19c7.78-1.81,15.7-3.12,23.67-4.18l3-.38c1-.14,2-.25,3-.34l6-.59c4-.28,8-.62,12.07-.74S153,12.58,157,12.5c4,.07,8.07.06,12.1.28s8,.46,12.06.73,8,.74,12,1.3a238.28,238.28,0,0,1,46.62,10.63,176,176,0,0,1,21.72,9,136.87,136.87,0,0,1,19.66,11.77A87.07,87.07,0,0,1,297.2,61a52.75,52.75,0,0,1,10,17.38Z"/><path class="f54933d5-f679-4ce5-bf9e-eb8c0f8d1f88" d="M69.14,116.37H47.34a24.11,24.11,0,0,1-6.57-.91q-6.29-1.9-10-8.74a30.19,30.19,0,0,1-3.31-14.45,31.93,31.93,0,0,1,3-14.09A17.67,17.67,0,0,1,39.71,69a25,25,0,0,1,9.53-1.9H69V76.5H48.46q-5,0-7.26,5.43A29.15,29.15,0,0,0,39.43,93a19.71,19.71,0,0,0,2.26,9.81q2.61,4.74,7.34,4.73H69.14Z"/><path class="f54933d5-f679-4ce5-bf9e-eb8c0f8d1f88" d="M95.67,87.72H84.74v28.65H75V79.82h9.74V84.9a10.1,10.1,0,0,1,1.91-3.11,7.29,7.29,0,0,1,3-1.83c.57-.19,1.17-.35,1.81-.5a9.1,9.1,0,0,1,2-.21,8.71,8.71,0,0,1,2.27.29Z"/><path class="f54933d5-f679-4ce5-bf9e-eb8c0f8d1f88" d="M110.56,75.72h-9.73V67.05h9.73Zm0,40.65h-9.73V79.82h9.73Z"/><path class="f54933d5-f679-4ce5-bf9e-eb8c0f8d1f88" d="M151.78,105.22a11.48,11.48,0,0,1-3,8,9.79,9.79,0,0,1-7.59,3.31H117v-6.63h19.84a5.8,5.8,0,0,0,3.55-1.06,3.54,3.54,0,0,0,1.45-3q0-4.59-6.2-4.59H125.5c-2.16,0-4.25-1-6.27-3.11a9.48,9.48,0,0,1-3-6.7,13.55,13.55,0,0,1,2.26-8.18c1.74-2.36,4.3-3.53,7.69-3.53h23.29v6.91H128.7a2.56,2.56,0,0,0-2.08,1.17,4.24,4.24,0,0,0-.88,2.64,4,4,0,0,0,4,3.95h10.94a10.9,10.9,0,0,1,8.15,3.07A10.71,10.71,0,0,1,151.78,105.22Z"/><path class="f54933d5-f679-4ce5-bf9e-eb8c0f8d1f88" d="M194.47,97.25q0,8.75-4.54,13.94A15.11,15.11,0,0,1,178,116.37H167.37v13.34h-10V79.82H177q8.33,0,13,4.94Q194.48,89.48,194.47,97.25Zm-9.95.56a10.17,10.17,0,0,0-2.93-7.51,9.92,9.92,0,0,0-7.3-2.93h-6.92v21.31H175a8.73,8.73,0,0,0,6.88-3A11.43,11.43,0,0,0,184.52,97.81Z"/><path class="f54933d5-f679-4ce5-bf9e-eb8c0f8d1f88" d="M235.12,79.82l-.07,38.1a9.4,9.4,0,0,1-1,4.34,12,12,0,0,1-2.61,3.43,14,14,0,0,1-5.08,2.89,22.23,22.23,0,0,1-6.29.78H200.89v-7.62h20a4.09,4.09,0,0,0,2.55-.93,3.78,3.78,0,0,0,1.63-3v-1.43H213.77a17.73,17.73,0,0,1-5.52-.74,11.14,11.14,0,0,1-4.38-2.85,12.16,12.16,0,0,1-3.76-9.09V79.82h10.31l-.07,23.37a9.89,9.89,0,0,0,.17,2.11,3.73,3.73,0,0,0,1,1.55,4.36,4.36,0,0,0,1.89,1.16,9.43,9.43,0,0,0,2.64.32h9V79.82Z"/><path class="f54933d5-f679-4ce5-bf9e-eb8c0f8d1f88" d="M255.09,67.05l-7,8.39h-7.34l3.11-8.39Z"/><path class="f54933d5-f679-4ce5-bf9e-eb8c0f8d1f88" d="M294,105.22a11.48,11.48,0,0,1-3,8,9.78,9.78,0,0,1-7.58,3.31H259.25v-6.63H279.1a5.82,5.82,0,0,0,3.55-1.06,3.53,3.53,0,0,0,1.44-3q0-4.59-6.19-4.59H267.76c-2.15,0-4.24-1-6.26-3.11a9.45,9.45,0,0,1-3-6.7,13.62,13.62,0,0,1,2.26-8.18c1.74-2.36,4.31-3.53,7.69-3.53h23.29v6.91H271a2.58,2.58,0,0,0-2.09,1.17A4.24,4.24,0,0,0,268,90.4,4,4,0,0,0,272,94.35h10.94A10.89,10.89,0,0,1,291,97.42,10.71,10.71,0,0,1,294,105.22Z"/></g></g></svg>