<svg id="a16b5da3-aebf-4fa4-9188-9b0ffe193ad4" data-name="fiveVines Logo" xmlns="http://www.w3.org/2000/svg" viewBox="0 0 477.78 366.85"><defs><style>.a7d5b3fb-6e59-415f-8efe-a5df9e40ee90{fill:#00a651;}</style></defs><title>five_vines_logos</title><path class="a7d5b3fb-6e59-415f-8efe-a5df9e40ee90" d="M224.34,387.66a5.35,5.35,0,0,1,.15,1.17c0,1.41-.86,2.36-2.56,2.84-.1.05-1.82.32-5.18.81q-11.31,1.61-27.81,3-4.31,9.19-12.41,37.66,13.8-1.23,28-1.53,4.23-.08,5.62,2.7a34.4,34.4,0,0,1,1.09,4.82,4.19,4.19,0,0,1,.15,1c0,1.65-1.9,2.8-5.69,3.43a29.8,29.8,0,0,1-4.89.66,2.45,2.45,0,0,1-2.12-1.39c-.68-1.31-2-2-3.87-2q-15.92,0-20.8.58-2.62,6.72-9.27,36.21c-.83,3.64-2,5.47-3.58,5.47a25.78,25.78,0,0,1-6.27-1.61q-2.85-.94-2.12-6.42a108.7,108.7,0,0,1,2.85-13.57c.58-2,2.57-2.75,6-2.12a97.51,97.51,0,0,0,4-12.12q-3.06-7.87-3.06-8.1a5.3,5.3,0,0,1,.07-.88q.43-2.4,7.23-3.86.36-1.24,12-38.1a144,144,0,0,0-22.56,3.5q-12.48,2.92-16.49,6.5-4.23,3.79-4.23,7.66,0,4.15,4.81,13.14a3.45,3.45,0,0,1,.51,1.75c0,1.22-.56,1.82-1.67,1.82a2.63,2.63,0,0,1-2.12-1.38q-5.78-8.25-7.52-12.85a35,35,0,0,1-1.75-9.27q-.74-9,14.52-13.14A230,230,0,0,1,186,386.79c1.56-3.17,2.72-4.75,3.5-4.75q1.68,0,5.77,3.65,1.89,0,11.82-1.46a6.33,6.33,0,0,0,3.51-2.55q1.6-2.13,7.66-2.41,3.36-.15,4.6,2.48C222.9,382,223.42,384,224.34,387.66Z" transform="translate(-128.37 -116.28)"/><path class="a7d5b3fb-6e59-415f-8efe-a5df9e40ee90" d="M234.12,431.16Q232.36,441,225,463.93a49.43,49.43,0,0,0,5.84-6.93,1.38,1.38,0,0,1,1-.66c.78,0,.87.68.29,2.05q-.36.8-6.13,10a72.34,72.34,0,0,0-6.42,12.4,2.4,2.4,0,0,1-2.41,1.68,10.69,10.69,0,0,1-4.75-1.68q-1.89-1-1.89-1.53a5.63,5.63,0,0,1,.8-1.9q3.94-6.93,8.76-23.21,4.59-15.76,5.18-23.43c.15-2.19-.07-3.28-.66-3.28-.44,0-1.21.54-2.33,1.6l-4.53,4.24c-1.6,1.46-2.41,1.53-2.41.22A2.64,2.64,0,0,1,216,432a105.37,105.37,0,0,1,7.3-9.13,3.27,3.27,0,0,1,2.26-1.24,7,7,0,0,1,3.43,1.61,30.2,30.2,0,0,1,3.72,1.09c1.12.69,1.68,1.95,1.68,3.8A17.15,17.15,0,0,1,234.12,431.16Zm10.29-32a2.48,2.48,0,0,1,1.17,2c0,1.42-2.09,3.6-6.28,6.57q-4.16,2.85-8,2a9.61,9.61,0,0,1-3.79-1.61,3.19,3.19,0,0,1-.77-.91.87.87,0,0,1-.11-.77c.15-.19.44-.24.88-.14a88.72,88.72,0,0,0,8.83-8.4c1.12-1.26,1.92-1.9,2.41-1.9C239.6,396.05,241.49,397.1,244.41,399.19Z" transform="translate(-128.37 -116.28)"/><path class="a7d5b3fb-6e59-415f-8efe-a5df9e40ee90" d="M291.93,428q-1.83,4.17-4.16,9.86a22,22,0,0,0,3.28,5,1,1,0,0,1-.22,1.46,2.63,2.63,0,0,1-2,.73,3.83,3.83,0,0,1-3.06-1.61Q281,454.3,274.85,465.54q-6.42,12-9.2,14.82a6.94,6.94,0,0,1-4.82,2.4,5.41,5.41,0,0,1-4-1.82,12.14,12.14,0,0,1-4,1.17c-1.71,0-3-1.49-3.95-4.45Q247,471.38,247,459.77q0-16.56,2.84-24.74-1.6,1.46-6.13,6.42a2.39,2.39,0,0,1-1.82.88c-.93,0-1.39-.41-1.39-1.24a2.67,2.67,0,0,1,.66-1.53q4.38-5.93,11.46-15.7c1.21-1.75,2.48-2.62,3.79-2.62s3.7,1.16,6.72,3.5a2.3,2.3,0,0,1,.95,1.75c0,1.22-.88,2.12-2.63,2.7A72,72,0,0,0,255,460.07a44.22,44.22,0,0,0,2.11,14.74c.54,1.56,1.27,2.33,2.19,2.33s2-.82,3.21-2.48a128.83,128.83,0,0,0,11.1-19.12,96.18,96.18,0,0,0,6.49-16.28,9,9,0,0,1-1-4.45q0-5,3.22-13.21,1.38-3.44,3.57-3.43,1.24,0,5.11,2.26a3.29,3.29,0,0,1,1.9,2.92A19.25,19.25,0,0,1,291.93,428Z" transform="translate(-128.37 -116.28)"/><path class="a7d5b3fb-6e59-415f-8efe-a5df9e40ee90" d="M331.85,460q-17.73,22.71-25,22.7-3.43,0-8.68-4.74-5.47-2.55-5.48-6.86a9.89,9.89,0,0,1,.15-1.68,120.58,120.58,0,0,1,5.33-22.12c-1.81-.92-2.71-1.8-2.71-2.62s.52-1,1.54-1a5.16,5.16,0,0,1,2.41.66q6.49-14.6,11.67-20.73c2.24-2.72,4.26-4.09,6.06-4.09q1.24,0,6.13,2.12c-.24-1.46.17-2.31,1.24-2.55H328c2.1,0,3.14.36,3.14,1.09a8.58,8.58,0,0,1-.22,1.24,9.51,9.51,0,0,0-.21,1.9q0,2.63.07,6.5c.05,2.57.07,4.3.07,5.18q0,9-5,12.62a17,17,0,0,1-10.22,3.29,51,51,0,0,1-9.93-1.61,40.66,40.66,0,0,0-2.77,8.83,57.28,57.28,0,0,0-1.9,14.75q.07,3.8,2.41,3.79a7.89,7.89,0,0,0,2.26-.43q8.47-3,23.58-18.25a2.73,2.73,0,0,1,1.9-.95c.92,0,1.38.44,1.38,1.31A2.64,2.64,0,0,1,331.85,460Zm-8.54-32.26c0-1.9-.41-2.85-1.24-2.85a4.6,4.6,0,0,0-2.33,1.17q-7.15,5.77-12.56,20.22c1,.15,2.68.29,5.11.44,3.94.14,6.89-.76,8.83-2.7,1.46-1.46,2.27-3.87,2.41-7.23Q323.32,440.5,323.31,427.73Z" transform="translate(-128.37 -116.28)"/><path class="a7d5b3fb-6e59-415f-8efe-a5df9e40ee90" d="M451.92,387.66a4.54,4.54,0,0,1,.95,2.41q0,1.46-6.35,5.69-9,10.67-24.31,36.06-16.43,27.3-22.77,43.28a12.26,12.26,0,0,1,.36,2.48q0,2.42-4.59,4.53A7.68,7.68,0,0,1,392,483q-1.83,0-4.82-3.35a4.42,4.42,0,0,1-1.17-2.85,5.27,5.27,0,0,1,2-3.94,214.7,214.7,0,0,0-6.49-48.54q-5.4-21.39-11.75-30.51a6.76,6.76,0,0,0-5.84-3.21q-3.95,0-11.32,5.47a3.1,3.1,0,0,1-1.89.59c-1.42,0-2.12-.51-2.12-1.53a3.2,3.2,0,0,1,1.17-2.05,69.84,69.84,0,0,1,15.54-11.53,11.51,11.51,0,0,1,5.33-1.9c2.19,0,4.41,1.63,6.64,4.89q15,22,20.73,78.17,5.11-10.29,19.34-35.47,13.08-23.21,14.9-25.76c-.93.14-1.9-.78-2.92-2.78a12.77,12.77,0,0,1-1.54-5.91c0-1.56.46-2.34,1.39-2.34,1.12.05,2.24.08,3.36.08a14.3,14.3,0,0,0,5.11-3.29c1.41-1.21,2.79-2.45,4.16-3.72a6.69,6.69,0,0,1,3.21-1.46Q448,382,451.92,387.66Z" transform="translate(-128.37 -116.28)"/><path class="a7d5b3fb-6e59-415f-8efe-a5df9e40ee90" d="M457.17,431.16q-1.74,9.85-9.12,32.77a49.43,49.43,0,0,0,5.84-6.93,1.38,1.38,0,0,1,1-.66c.78,0,.88.68.29,2.05q-.36.8-6.13,10a72.34,72.34,0,0,0-6.42,12.4,2.4,2.4,0,0,1-2.41,1.68,10.62,10.62,0,0,1-4.74-1.68c-1.27-.68-1.9-1.19-1.9-1.53a5.87,5.87,0,0,1,.8-1.9q3.94-6.93,8.76-23.21,4.6-15.76,5.18-23.43c.15-2.19-.07-3.28-.65-3.28s-1.22.54-2.34,1.6l-4.53,4.24q-2.4,2.19-2.4.22a2.61,2.61,0,0,1,.65-1.46,105.37,105.37,0,0,1,7.3-9.13,3.27,3.27,0,0,1,2.26-1.24,7,7,0,0,1,3.43,1.61,31.38,31.38,0,0,1,3.73,1.09c1.12.69,1.68,1.95,1.68,3.8A17.25,17.25,0,0,1,457.17,431.16Zm10.29-32a2.48,2.48,0,0,1,1.17,2c0,1.42-2.09,3.6-6.27,6.57-2.78,1.9-5.45,2.58-8,2a9.66,9.66,0,0,1-3.8-1.61,3.15,3.15,0,0,1-.76-.91.81.81,0,0,1-.11-.77c.14-.19.43-.24.87-.14a88.72,88.72,0,0,0,8.83-8.4c1.12-1.26,1.93-1.9,2.41-1.9Q463.09,396.05,467.46,399.19Z" transform="translate(-128.37 -116.28)"/><path class="a7d5b3fb-6e59-415f-8efe-a5df9e40ee90" d="M520.38,454.81Q516,461.46,509,474.08q-1.32,3.29-2.56,6.57c-.68,1.51-1.58,2.26-2.7,2.26a10.93,10.93,0,0,1-3.87-1.09c-1.9-.78-2.84-1.56-2.84-2.34a6.93,6.93,0,0,1,.94-2.26,126.57,126.57,0,0,0,8.47-24q4-15.1,3.43-23.06c-.1-2.14-.58-3.21-1.46-3.21-.63,0-1.58.61-2.84,1.82q-18.4,18-31.83,48-1.68,3.72-3.94,3.72-1.6,0-5.33-1.82c-1-.44-1.48-.85-1.53-1.24a9.88,9.88,0,0,1,.8-2.05,178.9,178.9,0,0,0,8.4-23.5q4.44-15.4,5-24c.1-1.75.05-2.63-.14-2.63s-.73.66-2,2-3.14,3-5.47,5.11a2,2,0,0,1-1.46.66q-1,0-1-.81a2,2,0,0,1,.73-1.31q3.14-4,8.24-10a3.08,3.08,0,0,1,2.27-1.24q1.75,0,3.06,2.55,5.91,1.76,5.55,5.4-.81,8-8.25,29a132.3,132.3,0,0,1,14.24-21.06q9.33-11.64,13.86-13.75a9.54,9.54,0,0,1,3.21-1c.64,0,1.66.54,3.07,1.61q6.06,2.12,6,7,0,5.1-2.49,16.42a148.65,148.65,0,0,1-3.65,14.52c1.41-1.8,3.22-4.13,5.4-7a1.58,1.58,0,0,1,1.17-.73c.73,0,1.1.46,1.1,1.38A2.67,2.67,0,0,1,520.38,454.81Z" transform="translate(-128.37 -116.28)"/><path class="a7d5b3fb-6e59-415f-8efe-a5df9e40ee90" d="M565.78,460q-17.73,22.71-25,22.7-3.44,0-8.69-4.74-5.48-2.55-5.47-6.86a11,11,0,0,1,.14-1.68,122.24,122.24,0,0,1,5.33-22.12c-1.8-.92-2.7-1.8-2.7-2.62s.51-1,1.54-1a5.09,5.09,0,0,1,2.4.66q6.5-14.6,11.68-20.73c2.24-2.72,4.26-4.09,6.06-4.09q1.25,0,6.13,2.12c-.24-1.46.17-2.31,1.24-2.55h3.43c2.09,0,3.14.36,3.14,1.09a8.58,8.58,0,0,1-.22,1.24,9.56,9.56,0,0,0-.22,1.9q0,2.63.08,6.5c0,2.57.07,4.3.07,5.18q0,9-5,12.62a17,17,0,0,1-10.22,3.29,50.86,50.86,0,0,1-9.93-1.61q-1.24,2.26-2.77,8.83a56.84,56.84,0,0,0-1.9,14.75q.07,3.8,2.41,3.79a7.89,7.89,0,0,0,2.26-.43q8.46-3,23.58-18.25a2.73,2.73,0,0,1,1.89-.95c.93,0,1.39.44,1.39,1.31A2.64,2.64,0,0,1,565.78,460Zm-8.54-32.26c0-1.9-.41-2.85-1.24-2.85a4.57,4.57,0,0,0-2.33,1.17q-7.15,5.77-12.56,20.22c1,.15,2.68.29,5.11.44q5.91.21,8.83-2.7,2.19-2.19,2.41-7.23Q557.23,440.5,557.24,427.73Z" transform="translate(-128.37 -116.28)"/><path class="a7d5b3fb-6e59-415f-8efe-a5df9e40ee90" d="M594.47,464.23q.21,8.75-9.71,12a14.54,14.54,0,0,1-2.34,4.23,7.5,7.5,0,0,1-5,2,20.21,20.21,0,0,1-4.53-.22l-10.58-1.6a2.44,2.44,0,0,1-2.12-2.12q.3-2,4.09-2.33c3.46-.25,8.56-.86,15.33-1.83a7.5,7.5,0,0,0,5.4-4.31,8.93,8.93,0,0,0,1-4.3q0-4.61-4.6-16.21-4.53-11.31-4.23-15.1.58-9.13,16.86-12.7c1.07-.25,1.6.14,1.6,1.16,0,.59-.39,1-1.16,1.39q-7.89,3.43-7.89,8.47a21.63,21.63,0,0,0,.73,4.92q.74,3,4.38,14.2Q594.39,460,594.47,464.23Zm11.67-41.9a50.53,50.53,0,0,1-1.75,10.51,6.93,6.93,0,0,1-1.46,3.21,8.68,8.68,0,0,1-2.48,1.1,14.49,14.49,0,0,1-3.36,1c-.73,0-1.09-.49-1.09-1.46a9.9,9.9,0,0,1,.29-2.12q1.76-7.21,1.35-10c-.27-1.88.28-3.06,1.64-3.54q3.59-1.83,4.6-1.83C605.39,419.19,606.14,420.24,606.14,422.33Z" transform="translate(-128.37 -116.28)"/><g id="af3fd0d6-72e4-4190-8372-08ca80bb7c61" data-name="shape"><path class="a7d5b3fb-6e59-415f-8efe-a5df9e40ee90" d="M232.36,239.35c19.88-26.7-14.52-46.93-64.37-33.62-31.56,8.43-43.25,35.84-38.66,51.2C136.43,280.78,212.48,266,232.36,239.35Zm-51.25,1.9c-7.17,9.62-34.55,14.93-37.12,6.35-1.64-5.54,2.56-15.41,13.93-18.45C175.88,224.35,188.27,231.65,181.11,241.25Z" transform="translate(-128.37 -116.28)"/><path class="a7d5b3fb-6e59-415f-8efe-a5df9e40ee90" d="M326.6,241c40.79-41-9.86-84.07-98.84-73.52-12.71,1.5-40.89,9.71-61.06,26.24,2.11-.42,4.26-.81,6.51-1.08,67.81-8,109.09,25,78,56.2-12.62,12.67-37,21-61.81,24.29C234.12,279.64,300.1,267.6,326.6,241Z" transform="translate(-128.37 -116.28)"/><path class="a7d5b3fb-6e59-415f-8efe-a5df9e40ee90" d="M411.48,260.6c59.88-67-.09-135-122.81-123.39-27.92,2.64-50.49,8.64-67.88,17.06a134.4,134.4,0,0,1,24.92-4.05c105.73-4.51,161.56,50.75,109.87,95.36-20.62,17.81-58.21,30.48-96.2,34.89C314.32,295.76,381.68,294,411.48,260.6Z" transform="translate(-128.37 -116.28)"/><path class="a7d5b3fb-6e59-415f-8efe-a5df9e40ee90" d="M472.33,297.22c88.87-57,52.72-185.57-144.08-174.42,146.65,2.84,178.58,101.32,98.31,159.14-32.86,23.66-107.72,22.78-135.24,17.7C330.54,308.94,422,329.47,472.33,297.22Z" transform="translate(-128.37 -116.28)"/><path class="a7d5b3fb-6e59-415f-8efe-a5df9e40ee90" d="M396.8,116.28c190.2,28.3,185,161.94,71.3,207.52-46.55,18.67-136.28-4.7-167.87-19,44.4,22.84,148.27,74.78,218.33,51C642.38,313.78,630.67,130.51,396.8,116.28Z" transform="translate(-128.37 -116.28)"/></g></svg>